<?xml version="1.0" encoding="utf-8"?>
<!-- Generator: Adobe Illustrator 25.4.1, SVG Export Plug-In . SVG Version: 6.00 Build 0)  -->
<svg version="1.1" id="Layer_1" xmlns="http://www.w3.org/2000/svg" xmlns:xlink="http://www.w3.org/1999/xlink" x="0px" y="0px"
	 viewBox="0 0 400 200" style="enable-background:new 0 0 400 200;" xml:space="preserve">
<style type="text/css">
	.st0{fill:#231F20;}
	.st1{fill:#0499DB;}
	.st2{fill:none;stroke:#231F20;stroke-width:2.8197;stroke-miterlimit:34.2817;}
	.st3{fill:#F9A91F;}
	.st4{fill:#D1E2F5;}
</style>
<g>
	<path class="st0" d="M151.9,109.8c-0.3-2.5-0.8-4.8-1.3-6.8c-0.1-0.9-0.3-1.6-0.4-2c-0.3-2.1-0.7-4.1-1.2-6.3
		c-0.2-0.2-0.2-0.3-0.7-0.2c-0.5,0.1-0.4,0.1-0.8,0.2l-0.3,0.1c-0.5,0.2-0.5,0.2-1,0.3c-0.5,0.2-1.1,0-1.1,0.8
		c-0.1,3.6,0.1,7,0.2,10.5c-0.1,0.5-1.2,0.2-1.9,0.3c-0.4,0.8,0.2,2.4-0.7,2.2c-0.9-0.1-2.2-0.1-3.3-0.2c-0.9,0-2.2-0.2-3-0.2
		c-1.3-0.1-2-0.2-3.4-0.4c-3.6-0.4-7.2-1-10.6-1.9c-0.4-0.1-0.8-0.3-0.9-0.8c-0.7-4.4,0.5-8.6,0.7-12.9c0.1-2,0.6-4,0.7-6
		c0.1-0.9,0.3-1.5,0.4-2.7c0.1-0.8,0.3-1.7,0.3-1.9c0.2-1,0.2-1.2,0.3-2.2c0,0,0.1-0.9,0.3-1.9c0.2-1.3,0.3-1.7,0.5-3.3
		c0.2-0.8,0.3-1.6,0.4-2.4c0.2-0.8,0.4-1.9,0.7-3c0.1-0.5,0.3-1.3,0.4-2.1c0.2-0.5,0.3-0.9,0.4-1.6c0.5-1.7,0.8-2.8,1.3-4.8
		c0.4-1.4,1-3.7,1-3.9c0.1-0.2,0.2-0.7,0.2-1c-0.7,0.1-1.5,0.1-2.4,0.3c-0.6,0.1-0.7,0.2-1.1,0.3c-0.5,0.1,0.6,2.6,0.1,2.7
		c-1.7,0.4-3.6,0.4-5.2,0.7c-1.9,0.3-4,0.6-5.8,0.9c-2,0.4-4,0.8-6.1,1.5c-1.9,0.6-4.3,1.2-4.7,1.6c-0.2,0.3-0.3,2.8-0.1,4.3
		c0.1,0.4,0.9-0.1,1.8-0.3c1.7-0.5,5.1-1.3,5.7-1.5l1.5-0.4c1.6-0.3,2.7-0.9,4.4-1c0.6-0.1,0.7,1.2,1.1,2.3c0.4,0.9,0.4,1.5,0.9,2.6
		c0.4,1.2,0.6,1.8,1,2.9c0.1,0.5,0.1,0.6,0.5,1.9c0.4,1.4,0.4,1.2,0.8,3c0,0,0.3,1.1,0.4,1.7c0.2,0.5,0.2,1,0.6,1.8
		c0.3,1.2,0.4,1.2,0.5,2.6c0,0.3-1.4,0.7-1.9,0.9c0.1,0.4,0.2,0.5,0.3,0.8c0.3,0.7,0.7,1.3,0.3,1.5c-2.8,0.9-5.8,1.7-8.5,2.6
		c-1.5,0.5-2.6,0.9-3.9,1.5c-1.3,0.4-3.3,1.3-3.5,1.7c-0.1,1.9,0.1,3.1,0.3,5.1c0.1,1.5,0.2,1.8,0.4,3.4c0.2,1.7,0.4,3.6,0.8,5.3
		c0.2,1.7,0.4,3.9,0.6,5.6l-0.4,0.1l-3,0.7l-0.2,0l0.4,2.4c-2.3,0.5-4.3,1.2-6.7,1.4c-1.5,0.3-2.6,0.3-4.2,0.4
		c-3.6,0.3-6.7,0.7-10.4,0.5l-1.1,0c-2.2-0.2-3.9,0.2-5.9-0.1c-0.6-0.1-0.7-1.2-1-2.1c-0.3-1.8-0.7-2.7-1.1-4.5l-0.7-2.7
		c-0.9-3.8-1.1-4.6-1.9-9c-0.3-1.3-0.7-3.6-1-5.1c-0.3-1.5-0.3-1.9-0.6-3.5c0,0-0.4-2.7-0.6-3.8c-0.4-2.2-0.3-1.7-0.6-3.9
		c-0.1-0.8-0.2-1.9-0.3-2.5c-0.3-3.8-0.4-4.1-0.4-4.9c-0.1-1.2-0.2-2.4-0.3-3.1c-0.3-2.7-0.2-6-0.5-8.8c0.1-0.9-0.1-2-0.1-2.9
		c0-1.8,0-3.1-0.2-4.8c0-1.9-0.1-2.3-0.1-3.5c0-0.8,0-1.7,0.1-2.4c0-1,0.1-3.3,0.1-4.1c0.1-0.8,0.2-2,0.7-2.3c0.5-0.4,1-0.4,1.4-0.5
		c0.4-0.1,0.8-0.1,1.1-0.4c0.1-0.5,0.1-0.8,0.2-1.5l0.1-0.5c0.2-0.3,0.4-0.4,0.6-0.7l1-0.7c0.5-0.3,0.7-0.4,1.4-0.7
		c1.5-0.7,3.1-1.3,4.7-1.9c2-0.9,3.1-1.2,5.2-1.9c1-0.2,2.5-0.8,3.5-1.1c2-0.7,2.8-0.9,4.9-1.3c0.9-0.2,2.6-0.7,3.4-0.8
		c0.3-0.1,4.9-1,5.8-1.1c0.5-0.1,0.8-0.1,1.5-0.3c0.9-0.1,1.3-0.2,2.4-0.4c1.9-0.4,4.3-0.7,6.5-1l0.9-0.1c1.7-0.2,2.3-0.4,4.2-0.5
		c2.9-0.3,6.5-0.7,9.5-0.5c0.3,0.1,0.4,0.3,0.5,0.5c0.2,0.9,0.2,1.6,0.5,3.3c0,0.6,0.1,1.5,0.1,1.7c0.4,3.3,0.3,2.9,0.8,6.1
		c0.1,1.4,0.4,2.8,0.4,3.3c0.1,1.6,0.2,1.9,0.3,3.1c0.1,0.8,0.2,1.8,0.3,3c0.1,1.2,0.2,1.9,0.2,3.1c0.1,1,0,1.9,0.1,2.9
		c0.1,0.1,0.3-0.6,0.5-1.2c0.2-0.6,0.3-1.1,0.3-1.3c0.2-0.7,0.3-1.2,0.3-1.2c0.1-0.3,0.2-0.6,0.3-1.1c0.2-0.7,0-1,0.8-1.3l1.7-0.1
		c0.3-0.9,0.3-2,1.1-2.6c0.4-0.1,8.5-0.9,12.4-0.5c3.9,0.3,6.4,0.3,10.1,1.1l1.5,0.2c0.6,0.1,1,0.2,1.6,0.3c0.5,0.4,0.7,0.9,1,1.4
		c0.4,0.6,0.4,0.8,0.7,1.4c1-0.3,1.8-0.5,3-0.8c0.3-0.2,0.2-0.3,0.3-0.5c0.1-0.5,0.2-1,0.3-1.3c0.2-0.3,0.5-0.4,1.3-0.7
		c1.4-0.3,2.6-0.6,3.9-0.8c1.5-0.2,2.9-0.5,4.6-0.7c2.7-0.1,5.2-0.3,8.3,0c0.3-0.1,0.7,0,0.9,0.1c0.3,0.4,0.8,1,1,1.5
		c0.5,1,0.9,1.6,1.9,3c0.2,0.4,0.5,0.8,1.1,1.7c0.7,1,0.8,1.1,1.9,2.8c0.3,0.5,0.6,0.9,0.7,0.7c1-2.8,1.7-5.2,2.6-7.9
		c0.2-0.9,0.8-0.6,1.1-0.6c0.5,0,0.9,0,1.1,0c0.8,0,1.2,0.2,1.4-0.2c0.3-0.3,0.3-1,0.7-1.4c0.2-0.1,0.6,0,1.6-0.1c1,0,1.4,0,2.6-0.1
		c0,0,0.4,0,1,0c1.5,0.1,1.7,0.1,2.9,0.1c0.6,0,1.5,0.1,2.2,0c1.5,0.1,2.5,0.1,4.8,0.4c0,0,1.1,0.1,1.5,0.2c1.2,0.2,2.2,0.2,3.4,0.5
		l0.4,0.5c0.4,1.3,0.7,3.6,0.9,4.4c0.2,1.5,0.6,2.9,0.9,4.4c0.5-0.1,0.9-0.2,1.7-0.3c0.2-0.1,0.9-0.2,1.6-0.3
		c1.7-0.3,1.8-0.2,3.5-0.5l1.1-0.1c0.8-0.1,0.8,0,1.6-0.1c0.6,0,0.7,0,1.3,0c1.1-0.1,2.3-0.1,3.5,0c1.3,0.1,1.7,0.1,3,0.2
		c0.7,0.1,0.9,0.1,1.6,0.1c0-1.6,2-1,2.9-1.8c-0.1-0.7-0.2-1.2,0.1-1.8c0.8-0.3,1.2-0.4,2.2-0.8c2.4-0.6,3.6-1,6-1.5l1.6-0.3
		c2.6-0.5,4-0.5,6.7-1c0.6,0,1.3-0.2,2.2-0.2c0.8,0,2.2-0.1,2.4-0.1c0.7,0,0.8,0,1.5,0c0.4,0,0.7,0,0.9,0c0.6,0.1,0.9-0.1,1.3,0.5
		c0.3,2.1,0.1,4.5,0.4,6.4c0.1,5.8,0.6,11.2,0.9,17.4c0.2,2.2,0.3,3.9,0.6,5.7c0,0.7,0.1,1.1,0.1,1.7c0.1,0.5,0.2,0.9,0.2,1.7
		c0,0.9,0.1,1.1,0.4,1c0.3,0,0.9,0,1.3,0c1,0,1.5-0.1,2.7-0.2l1.2-0.1c0.3,0,0.6,0,1.7-0.1c0.9-0.1,1.1,0,2-0.1c0.7,0,0.8,0,1.5,0
		c1.1,0,2-0.2,2.9,0c0.5,0.1,0.4,0.7,0.4,1.1c-0.1,3.1,0.1,5.7,0,8.5c0.1,3.9,0,12.1-0.1,12.4c-0.1,0.6-1.3,0.6-2.6,0.7
		c-0.2,0.1,0.2,1.4,0.1,2.1l0,0.2c-1.3,0.3-2,0.3-3.1,0.5c-0.8,0.2-0.9,0.2-1.7,0.3c-2.6,0.4-4.7,0.5-7.1,0.8
		c-1,0.1-1.5,0.1-2.6,0.3c-1.3,0.1-4.5,0.3-4.5,0.3c-4.2,0.4-7.1,0.3-10.9,0.8c-0.9,0.1-1.4,0.2-2.2,0.2c-1.2,0.2-3.4,0.4-3.7,0.2
		c-0.4-0.7-0.6-1.4-0.7-2.2c-0.4-1.4-0.5-2.1-0.7-3.1c-0.1-0.8-0.1-1.3-0.3-1.2c-2.1,0.2-3.6,0.4-5.7,0.5c-0.5,0.1-0.9,0.1-1.5,0.2
		c0,0-1.6,0.1-2.1,0c-1,0.1-2,0.1-2.9,0c-1-0.1-1.4-0.1-2.1-0.1c-0.9-0.1-1.7-0.2-2.9-0.3c-0.9-0.1-1.3-0.2-2.2-0.2
		c-0.5-0.1-0.7-0.2-1.2-0.1c-1.5,0.3-3.2,0.8-4.8,1.2c-0.9,0.2-1.2,0.2-1.8,0.3c-0.8,0.1-1.4,0.3-2.4,0.4c-1.5,0.2-1.8,0.2-3.2,0.5
		c-0.4,0-0.5,0.1-1,0.1c-2.3,0.4-4.5,0.4-6.8,0.8c-0.1,0-0.6,0.1-0.8-0.1c-0.2-0.2-0.1-0.3-0.2-0.5c-1.1-5.7-1.1-12.4-2.1-17.5
		c-0.8,1.2-1.4,2.2-2.2,3.7c-0.6,1-0.7,1.7-1.5,2c-0.4,0-0.8-0.4-1-0.6c-0.5,0.9-0.8,3.4-1.5,2.7c-1.2-1.4-2.2-2.7-3.2-4.1l-0.8-1.3
		c-0.2,1.9-0.3,3.3-0.4,5.7c-0.2,2-0.2,5.5-0.6,5.7c-0.3,0.3-1.2,0.1-2,0.2c-0.2,0.7-0.2,1.5-0.2,2.1c-0.1,0.5-0.2,0.7-0.4,0.7
		c-1.5,0.1-3.1-0.1-4.5-0.3c-1.6-0.1-2.3-0.1-4.4-0.3c-3.8-0.4-6-0.4-9.4-0.8c-1.2-0.2-1.6,0.6-2.8,1.1c-1.2,0.8-1.8,1.1-3,1.7
		c-2.4,0.9-3.8,1.9-6.2,2.8c-0.4,0.2-0.8,0.4-1.1,0.4L151.9,109.8z"/>
	<path class="st1" d="M125.9,30c0.1,0.3,0.1,0.5,0.2,1.2c0.1,0.6,0.1,0.9,0.2,1.9c0.3,2.9,0.6,4.8,1,7.7c0,0,0.2,1,0.3,2
		c0.1,0.9,0.2,2.4,0.3,2.6c0.1,0.9,0.2,1.5,0.2,2.2c0,0,0.1,1.2,0.2,1.9c0,1.1,0.1,1.3,0.2,2.2c0,0.6,0.1,0.9,0.1,1.8
		c0.1,0.6,0.2,1.3-0.1,1.3c-1.8,0.3-3.1,0.4-4.9,0.7c-1.7,0.2-2.3,0.3-4.4,0.5c-1.3,0.2-1.5,0.3-2.7,0.4c-2,0.3-2.2,0.4-3.7,0.8
		c-2.3,0.4-3.4,0.8-6.2,1.5c-0.6,0.2-0.8,0.2-1.1,0.3c-0.7,0.3-1,0.3-1.7,0.6l-0.6,0.3c-0.5,0.4-0.2,2.5-0.4,4.1c0,0.8,0,1-0.1,1.7
		c0,0.7,0,1.1,0,1.5c-0.1,0.8-0.2,2.8,0.6,2.4c1.3-0.1,2.1-0.5,3.6-0.9c1.4-0.3,2.6-0.7,4-0.9c2-0.6,3.9-1.2,5.8-1.7
		c0.2,0,0.3,0.2,0.4,0.6c0.1,0.4,0.3,0.8,0.5,1.5c0.2,0.6,0.4,1.2,0.5,1.6c1.2,3.1,1.7,4.8,2.5,8.3c0.4,1.4,0.6,1.8,1,3.4
		c0.2,0.5,0.6,1.6,0.3,1.6c-1.2,0.4-2.3,0.8-3.5,1.1c-2.4,0.8-5.2,1.7-7.7,2.5c-1.9,0.6-3.5,1.4-5.3,2c-0.5,0.3-0.7,0.9-0.7,1.5
		c-0.1,7.2,1.1,14.2,2,21.1l-0.1,0c-3.5,0.5-6.1,1.4-9.5,1.7c-0.5,0-1.4,0.1-2.1,0.2c-1.7,0.2-2.8,0.2-4.3,0.4
		c-2.4,0-3.9,0.1-6.1,0.1c-0.8,0.1-1.2,0-1.8,0.1c-0.8-0.1-1.8-0.1-2.8-0.2c-0.3-0.8-0.6-1.9-0.9-2.8c-0.3-1.5-0.6-2.2-0.9-3.4
		c-0.4-1.9-0.6-2.7-0.9-4.3c-0.3-0.9-0.3-1.2-0.5-1.9c-0.2-1.2-0.4-2.5-0.8-3.6c0-0.5-0.1-0.8-0.2-1.3c-0.2-0.7-0.1-1-0.3-1.7
		l-0.2-0.8c-0.9-3-1.2-5.8-1.5-8.7c-0.5-2.1-0.5-4.5-0.9-6.5c-0.2-1.2-0.2-2.5-0.4-3.9c-0.1-0.8-0.2-1.1-0.2-1.7
		c-0.1-0.4-0.2-1.7-0.2-2.1c-0.2-1.8-0.1-1.5-0.2-3.1c0-0.6-0.1-0.9-0.1-1.4c-0.1-1.8-0.1-1.8-0.2-3.4c0-0.2-0.1-2.5-0.1-3.3
		c-0.1-2.7-0.1-2.5,0-5.4c0-0.9,0-2.2,0-3.2c0-0.8,0-1.2,0.1-2.4c0-0.5,0-0.9,0-1.4l0.1-1.9c0.1-0.9,0-1.4,0.2-2.7
		c-0.1-0.8,0.6-1.3,1.2-1.7c2.3-1.3,4.1-2,6.9-3.3c2.3-0.7,3.5-1.4,5.7-2c1.9-0.7,3.3-1.1,5.5-1.6c2.1-0.6,4-1,5.8-1.3
		c0.7-0.1,1.2-0.2,2.2-0.4c2.5-0.5,3.1-0.6,5.6-1.1c1.1-0.1,2-0.3,3.3-0.5c3.4-0.5,6.6-0.9,9.9-1.3c1.5-0.2,2.2-0.2,3.6-0.4
		c1.5,0,3.3-0.2,4.2-0.1C125.9,29.1,125.8,29.2,125.9,30"/>
	<path class="st2" d="M125.9,30c0.1,0.3,0.1,0.5,0.2,1.2c0.1,0.6,0.1,0.9,0.2,1.9c0.3,2.9,0.6,4.8,1,7.7c0,0,0.2,1,0.3,2
		c0.1,0.9,0.2,2.4,0.3,2.6c0.1,0.9,0.2,1.5,0.2,2.2c0,0,0.1,1.2,0.2,1.9c0,1.1,0.1,1.3,0.2,2.2c0,0.6,0.1,0.9,0.1,1.8
		c0.1,0.6,0.2,1.3-0.1,1.3c-1.8,0.3-3.1,0.4-4.9,0.7c-1.7,0.2-2.3,0.3-4.4,0.5c-1.3,0.2-1.5,0.3-2.7,0.4c-2,0.3-2.2,0.4-3.7,0.8
		c-2.3,0.4-3.4,0.8-6.2,1.5c-0.6,0.2-0.8,0.2-1.1,0.3c-0.7,0.3-1,0.3-1.7,0.6l-0.6,0.3c-0.5,0.4-0.2,2.5-0.4,4.1c0,0.8,0,1-0.1,1.7
		c0,0.7,0,1.1,0,1.5c-0.1,0.8-0.2,2.8,0.6,2.4c1.3-0.1,2.1-0.5,3.6-0.9c1.4-0.3,2.6-0.7,4-0.9c2-0.6,3.9-1.2,5.8-1.7
		c0.2,0,0.3,0.2,0.4,0.6c0.1,0.4,0.3,0.8,0.5,1.5c0.2,0.6,0.4,1.2,0.5,1.6c1.2,3.1,1.7,4.8,2.5,8.3c0.4,1.4,0.6,1.8,1,3.4
		c0.2,0.5,0.6,1.6,0.3,1.6c-1.2,0.4-2.3,0.8-3.5,1.1c-2.4,0.8-5.2,1.7-7.7,2.5c-1.9,0.6-3.5,1.4-5.3,2c-0.5,0.3-0.7,0.9-0.7,1.5
		c-0.1,7.2,1.1,14.2,2,21.1l-0.1,0c-3.5,0.5-6.1,1.4-9.5,1.7c-0.5,0-1.4,0.1-2.1,0.2c-1.7,0.2-2.8,0.2-4.3,0.4
		c-2.4,0-3.9,0.1-6.1,0.1c-0.8,0.1-1.2,0-1.8,0.1c-0.8-0.1-1.8-0.1-2.8-0.2c-0.3-0.8-0.6-1.9-0.9-2.8c-0.3-1.5-0.6-2.2-0.9-3.4
		c-0.4-1.9-0.6-2.7-0.9-4.3c-0.3-0.9-0.3-1.2-0.5-1.9c-0.2-1.2-0.4-2.5-0.8-3.6c0-0.5-0.1-0.8-0.2-1.3c-0.2-0.7-0.1-1-0.3-1.7
		l-0.2-0.8c-0.9-3-1.2-5.8-1.5-8.7c-0.5-2.1-0.5-4.5-0.9-6.5c-0.2-1.2-0.2-2.5-0.4-3.9c-0.1-0.8-0.2-1.1-0.2-1.7
		c-0.1-0.4-0.2-1.7-0.2-2.1c-0.2-1.8-0.1-1.5-0.2-3.1c0-0.6-0.1-0.9-0.1-1.4c-0.1-1.8-0.1-1.8-0.2-3.4c0-0.2-0.1-2.5-0.1-3.3
		c-0.1-2.7-0.1-2.5,0-5.4c0-0.9,0-2.2,0-3.2c0-0.8,0-1.2,0.1-2.4c0-0.5,0-0.9,0-1.4l0.1-1.9c0.1-0.9,0-1.4,0.2-2.7
		c-0.1-0.8,0.6-1.3,1.2-1.7c2.3-1.3,4.1-2,6.9-3.3c2.3-0.7,3.5-1.4,5.7-2c1.9-0.7,3.3-1.1,5.5-1.6c2.1-0.6,4-1,5.8-1.3
		c0.7-0.1,1.2-0.2,2.2-0.4c2.5-0.5,3.1-0.6,5.6-1.1c1.1-0.1,2-0.3,3.3-0.5c3.4-0.5,6.6-0.9,9.9-1.3c1.5-0.2,2.2-0.2,3.6-0.4
		c1.5,0,3.3-0.2,4.2-0.1C125.9,29.1,125.8,29.2,125.9,30L125.9,30z"/>
	<path class="st0" d="M316.2,41.2c0.3,0.2,0.7,0.3,1,0.4c0.8,0.3,1.2,0.5,1.8,0.7c1.5,0.7,2.6,0.8,4.7,1.6c1.2,0.4,1.9,0.7,2.9,1
		c2.2,0.5,4.1,1.1,6.1,1.7c0.8,0.5,0,1.3-0.2,1.9c-0.7,1.5-1.3,3-2,4.5c-0.7,1.1-0.9,1.6-1.6,2.6c-0.6,1-1.2,1.5-1.7,2.2
		c-2.1,3-4.2,5.1-6.3,7.8l-0.5,0.6c-2.1,2.1-4.2,4.5-6.6,6.2c-0.3,1.9-0.2,2.6-0.3,4.5c0,0.8-0.1,2,0,2.6c0,2.3,0.1,2.7,0.1,4.1
		c0,0.7,0.1,1.1,0.1,1.6c0.2,1.6,0.1,1.8,0.2,3.6c0.1,2,0.1,2.9,0.3,4.9c0.2,1.7,0.3,2.4,0.4,4.1c0,0.4,0.2,1.1,0.2,1.5
		c0,1.1-0.9,1-1.7,1c-0.6,0-0.9,0.1-1.1,0.2c-0.2,0.8,0.4,1.7-0.3,2.3c-0.9,0.3-1.4,0.3-3,0.6c-0.8,0.1-1.8,0.2-2.5,0.3
		c-1.2,0.1-1.4,0.1-2.5,0.1l-1.3,0.1c-1.2,0.1-1.3,0.1-2.6,0.3c-0.8,0-0.9,0-1.8,0.1c-0.6,0.1-1.7,0-2.5,0c-1,0-1,0.1-2,0
		c-1.8,0-3.4,0.1-5.3-0.1c-0.6,0-0.9,0.1-1.4,0c-1.3,0-1-2.4-1-3.6c-0.1-2.7-0.1-2.9-0.2-5.2c0-1.3,0.1-2,0-2.7c0,0,0-2.2-0.1-3.2
		c0-1.2,0-3.8,0-5.1c0-0.9,0-2.4,0-2.4c-0.1-2.5,0.1-2.8,0-5c-1.9-1.4-3.9-3.5-5.3-5.2c-0.3-0.4-0.4-0.5-0.6-0.8
		c-2.8-3.3-5-6.2-6.6-10.3c-0.4-0.8-0.6-1.3-0.9-2c-0.4-1-0.3-0.9-0.6-1.5c-0.2-0.4-0.2-0.5-0.4-0.9c-0.3-0.6-0.4-0.7-0.5-1.2
		c-0.3-1-0.4-1.4-0.4-2.3c0.3-0.7,1.3-0.4,1.8-0.8c0.1-1.3-1.1-3,0.7-3.9c2-0.8,3.2-1.4,5.1-2.2l1.7-0.7c4.5-1.7,7.5-2.4,11.8-3.6
		c1.3-0.3,2.6-0.9,3.9-0.7c0.3,0.1,0.4,0.5,0.4,0.7c1,3.5,2.1,7.3,4.4,10.1c0.2,0.2,0.1,0.3,0.4,0.3c0.4-0.5,1.1-1.1,1.5-1.8
		c0.2-0.3,0.6-0.8,0.9-1.3c1.8-2.1,2.6-4.3,4.2-6.8c0.4-0.7,0.5-1.1,1.2-1.8c0.8-0.1,1.5,0.7,2.3,0.8c0.3-0.5,0.7-1,0.9-1.6
		c0.6-0.5,1.2,0,1.8,0.2C314.5,40.6,315.1,40.8,316.2,41.2"/>
	<path class="st1" d="M313.7,41.5c1,0.4,1.3,0.5,2.3,0.8c0.6,0.2,1.5,0.6,1.8,0.6c1.4,0.7,3.4,1.3,5.8,2.1c2.6,0.9,5.3,1.6,7.9,2.6
		c-0.4,1-0.7,1.9-1.2,2.8c-1.2,2.5-2.6,5.2-4.5,7.2c-0.2,0.2-0.2,0.3-0.4,0.5c-0.7,1-1.4,2.1-2.2,2.9c-2.3,2.8-4.1,5.1-7.1,7.7
		c-0.3,0.4-0.7,0.7-1.1,1.1l-0.4,0.4c-0.4,0.3-0.4,0.5-1.1,0.9c-0.5,0.4-0.6,0.4-1,0.6c-0.3,0.3-0.2,1-0.4,3.8l-0.1,2.9
		c-0.1,3,0,4.3,0.1,7.2c0.1,1.3,0.1,1.3,0.2,2.9c0,1,0.4,4.5,0.5,5.8c0.1,1.2,0.2,1.5,0.2,2.6c0,0,0.1,1.1,0.2,2.1
		c0.1,0.4-0.1,0.3-0.2,0.4c-0.8,0.2-1.5,0.3-2.1,0.5c-0.5,0.1-1.8,0.3-2.4,0.4c-2,0.2-2.4,0.2-4.7,0.4l-0.7,0
		c-0.9,0.1-1.3,0.1-2.3,0.1c-0.7,0.1-0.9,0-1.5,0c-3.3,0.2-5.7,0.3-9-0.1c-0.4,0-0.7-0.1-0.7-0.3c-0.3-0.2-0.6-4.3-0.6-7.1
		c-0.1-0.6,0-2.2-0.1-2.5c0-0.6,0-1.9-0.1-2.8c0.1-2.3,0-2.6,0.1-5.1c0-1.3,0-2.3,0.1-3.6c-0.1-1.4,0.2-2.6,0.1-4.1
		c-1-1-2.3-1.9-3.4-3.1c-0.7-0.6-1-0.8-1.4-1.3c-1.7-1.8-3.1-3.5-4.3-5.5c-0.3-0.4-1.2-1.6-1.6-2.3c-0.6-1.2-0.7-1.1-1.3-2.1
		c-0.2-0.4-0.5-1-0.7-1.2c0,0-0.4-0.9-0.7-1.4c-0.4-0.9-0.5-1.2-1-2.1c-0.3-0.9-0.4-1.3-0.7-2c-0.5-1.7-0.8-2.7-0.9-4.5
		c-0.1-0.2,0.6-0.6,1.4-0.8c1.3-0.4,2-0.8,3.7-1.4c1.8-0.8,3.4-1.4,5.4-2c1.4-0.5,4.7-1.5,5.6-1.9c1.8-0.4,3.5-1.1,5.3-1.2
		c0.3,0.5,0.4,1.4,0.7,2c0.5,1.8,1.3,3.7,2.1,5.2c0.8,1.9,1.9,3.3,3.4,4.9c0.5,0.5,1.2,1.2,2,1.3c1-1,1.5-1.9,2.6-3.2
		c0.6-0.8,1-1.2,1.2-1.5c0.3-0.6,0.8-1.2,1-1.5c1.4-1.8,1.5-2.3,2.6-4.2c0.5-0.9,0.9-1.8,1.5-2.7c0.3-0.7,0.5-1.2,0.8-1.5
		C312.8,41,313,41.1,313.7,41.5"/>
	<path class="st2" d="M313.7,41.5c1,0.4,1.3,0.5,2.3,0.8c0.6,0.2,1.5,0.6,1.8,0.6c1.4,0.7,3.4,1.3,5.8,2.1c2.6,0.9,5.3,1.6,7.9,2.6
		c-0.4,1-0.7,1.9-1.2,2.8c-1.2,2.5-2.6,5.2-4.5,7.2c-0.2,0.2-0.2,0.3-0.4,0.5c-0.7,1-1.4,2.1-2.2,2.9c-2.3,2.8-4.1,5.1-7.1,7.7
		c-0.3,0.4-0.7,0.7-1.1,1.1l-0.4,0.4c-0.4,0.3-0.4,0.5-1.1,0.9c-0.5,0.4-0.6,0.4-1,0.6c-0.3,0.3-0.2,1-0.4,3.8l-0.1,2.9
		c-0.1,3,0,4.3,0.1,7.2c0.1,1.3,0.1,1.3,0.2,2.9c0,1,0.4,4.5,0.5,5.8c0.1,1.2,0.2,1.5,0.2,2.6c0,0,0.1,1.1,0.2,2.1
		c0.1,0.4-0.1,0.3-0.2,0.4c-0.8,0.2-1.5,0.3-2.1,0.5c-0.5,0.1-1.8,0.3-2.4,0.4c-2,0.2-2.4,0.2-4.7,0.4l-0.7,0
		c-0.9,0.1-1.3,0.1-2.3,0.1c-0.7,0.1-0.9,0-1.5,0c-3.3,0.2-5.7,0.3-9-0.1c-0.4,0-0.7-0.1-0.7-0.3c-0.3-0.2-0.6-4.3-0.6-7.1
		c-0.1-0.6,0-2.2-0.1-2.5c0-0.6,0-1.9-0.1-2.8c0.1-2.3,0-2.6,0.1-5.1c0-1.3,0-2.3,0.1-3.6c-0.1-1.4,0.2-2.6,0.1-4.1
		c-1-1-2.3-1.9-3.4-3.1c-0.7-0.6-1-0.8-1.4-1.3c-1.7-1.8-3.1-3.5-4.3-5.5c-0.3-0.4-1.2-1.6-1.6-2.3c-0.6-1.2-0.7-1.1-1.3-2.1
		c-0.2-0.4-0.5-1-0.7-1.2c0,0-0.4-0.9-0.7-1.4c-0.4-0.9-0.5-1.2-1-2.1c-0.3-0.9-0.4-1.3-0.7-2c-0.5-1.7-0.8-2.7-0.9-4.5
		c-0.1-0.2,0.6-0.6,1.4-0.8c1.3-0.4,2-0.8,3.7-1.4c1.8-0.8,3.4-1.4,5.4-2c1.4-0.5,4.7-1.5,5.6-1.9c1.8-0.4,3.5-1.1,5.3-1.2
		c0.3,0.5,0.4,1.4,0.7,2c0.5,1.8,1.3,3.7,2.1,5.2c0.8,1.9,1.9,3.3,3.4,4.9c0.5,0.5,1.2,1.2,2,1.3c1-1,1.5-1.9,2.6-3.2
		c0.6-0.8,1-1.2,1.2-1.5c0.3-0.6,0.8-1.2,1-1.5c1.4-1.8,1.5-2.3,2.6-4.2c0.5-0.9,0.9-1.8,1.5-2.7c0.3-0.7,0.5-1.2,0.8-1.5
		C312.8,41,313,41.1,313.7,41.5z"/>
	<path class="st1" d="M204.8,45.8c1.6,0,2.8,0.2,4.3,0.1c0.2,0,0.8,0.1,1.4,0.1c1,0.1,1.5,0,2.5,0.2c1.2,0.2,3.7,0.3,4.1,0.6
		c0.3,0.8,0.2,1.1,0.5,1.8c0.1,0.5,0.1,0.8,0.3,1.4c0.4,3,1.4,6,1.5,9.3c0.2,1.3,0.2,1.7,0.3,3.1c0.1,0.9,0.1,1.7,0.2,2.5
		c0,0.7,0.1,0.7,0.1,1.3c0.1,0.8,0.1,1,0.1,1.7c0.1,0.8,0.1,1.5,0.1,2.4c0.2,2.3,0.1,3.1,0.4,5.3c0.1,0.7,0.1,2.3,0.2,3.5
		c0.1,0.3,0.1,2.4,0.2,3.7c0.1,1,0.2,2.7,0.2,4.3c0.1,1,0.1,1.2,0.1,3c0,0.5,0,1,0.1,1.6c0,0.7,0,0.8,0,1.4v1.2c0,0.6,0.1,1.3,0,1.8
		c0,0.7,0.1,1.3,0,2c0,0.3,0.1,1.2,0,1.5c-1.3,0.5-1.7,0.6-3.1,0.9c-0.9,0.2-1.3,0.3-2,0.5c-0.6,0.1-1.2,0.3-1.8,0.4
		c-0.4,0.1-1.6,0.2-2.5,0.3c-1.5,0.3-2,0.4-3.6,0.6c-1.3,0.3-1.9,0.3-3.4,0.5c-0.4,0.1-0.4,0-0.4-0.2c-0.3-0.6-0.2-1.2-0.4-2.1
		c-0.2-1.2-0.2-1.9-0.3-2.6c-0.1-0.8-0.2-1.7-0.2-2.7c-0.3-2.9-0.3-3.9-0.7-6.9c-0.2-1.2-0.2-1.4-0.3-2.4c-0.2-1.2-0.3-1.7-0.4-2.9
		c-0.2-0.2-0.4-0.4-0.7-0.4c-0.9-0.2-1.6,1.8-2.1,2.7c-1.5,2.4-2.5,4.6-3.9,6.8c-0.2,0.1-0.3-0.2-0.6-0.6c-0.5-0.6-0.7-0.9-1.2-1.6
		c-1-1.9-1.5-2.3-2.3-3.9c-0.6-0.9-0.5-0.8-0.9-1.4c-0.3-0.4-0.2-0.3-0.4-0.8c-0.4-0.5-0.7-1.5-1.5-1.3c-0.5,0.4-0.5,0.9-0.5,1.5
		c0.2,5.5-0.1,10.1-0.6,15.8l-0.1,0.9c-2.9,0.1-5.9-0.3-8.8-0.4c-3.2-0.2-6.3-0.5-9.5-0.8c0.4-0.4,1.1-0.7,1.5-1.2
		c0.7-0.7,1.5-1,2-1.8c-0.7-5.2-1-9.9-2-14.8l-0.3-1.4c-0.4-1.8-0.7-3.4-1-5.2c-0.8-4.1-1.5-7-2.5-11c-0.2-0.5-0.3-1.2-0.6-1.7
		c-0.2-0.6-0.2-0.8-0.4-1.4c-0.4-1.5-0.6-1.9-1.1-3.4c-0.4-1.2,0.1-2,0.3-3.4c0.2-0.7,0.2-1.1,0.4-1.9c0.2-1.3,0.5-2.6,0.9-3.9
		l0.2-0.3c2.4-1,4.8-1.1,7.4-1.7c1.4-0.2,3.6-0.2,5.2-0.3c0.7,0,1.1,0.1,2.1,0.1c0.8,0,1.7-0.1,2.2,0.1c0.4,0.1,1.6,2.2,3,4.5
		c0.4,0.6,0.7,1.1,1.1,1.7c0.7,0.9,0.8,1.3,1.6,2.3c0.4,0.5,0.4,0.7,0.7,1.2c1.2,1.4,1.4,2.2,2.2,3.2c0.3,0.3,0.7,0.5,1.1,0.4
		c0.7-0.1,0.6-0.5,0.9-1.2c0.2-0.7,0.4-1.3,0.8-2.3c0.6-1.9,1.1-2.9,1.7-4.9c0.2-0.8,0.6-1.5,0.9-2.3c0.5-1.3,1-2.9,1.2-3.1
		c0.2-0.1,2.2-0.1,3.3-0.2C203,45.8,203.5,45.8,204.8,45.8"/>
	<path class="st2" d="M204.8,45.8c1.6,0,2.8,0.2,4.3,0.1c0.2,0,0.8,0.1,1.4,0.1c1,0.1,1.5,0,2.5,0.2c1.2,0.2,3.7,0.3,4.1,0.6
		c0.3,0.8,0.2,1.1,0.5,1.8c0.1,0.5,0.1,0.8,0.3,1.4c0.4,3,1.4,6,1.5,9.3c0.2,1.3,0.2,1.7,0.3,3.1c0.1,0.9,0.1,1.7,0.2,2.5
		c0,0.7,0.1,0.7,0.1,1.3c0.1,0.8,0.1,1,0.1,1.7c0.1,0.8,0.1,1.5,0.1,2.4c0.2,2.3,0.1,3.1,0.4,5.3c0.1,0.7,0.1,2.3,0.2,3.5
		c0.1,0.3,0.1,2.4,0.2,3.7c0.1,1,0.2,2.7,0.2,4.3c0.1,1,0.1,1.2,0.1,3c0,0.5,0,1,0.1,1.6c0,0.7,0,0.8,0,1.4v1.2c0,0.6,0.1,1.3,0,1.8
		c0,0.7,0.1,1.3,0,2c0,0.3,0.1,1.2,0,1.5c-1.3,0.5-1.7,0.6-3.1,0.9c-0.9,0.2-1.3,0.3-2,0.5c-0.6,0.1-1.2,0.3-1.8,0.4
		c-0.4,0.1-1.6,0.2-2.5,0.3c-1.5,0.3-2,0.4-3.6,0.6c-1.3,0.3-1.9,0.3-3.4,0.5c-0.4,0.1-0.4,0-0.4-0.2c-0.3-0.6-0.2-1.2-0.4-2.1
		c-0.2-1.2-0.2-1.9-0.3-2.6c-0.1-0.8-0.2-1.7-0.2-2.7c-0.3-2.9-0.3-3.9-0.7-6.9c-0.2-1.2-0.2-1.4-0.3-2.4c-0.2-1.2-0.3-1.7-0.4-2.9
		c-0.2-0.2-0.4-0.4-0.7-0.4c-0.9-0.2-1.6,1.8-2.1,2.7c-1.5,2.4-2.5,4.6-3.9,6.8c-0.2,0.1-0.3-0.2-0.6-0.6c-0.5-0.6-0.7-0.9-1.2-1.6
		c-1-1.9-1.5-2.3-2.3-3.9c-0.6-0.9-0.5-0.8-0.9-1.4c-0.3-0.4-0.2-0.3-0.4-0.8c-0.4-0.5-0.7-1.5-1.5-1.3c-0.5,0.4-0.5,0.9-0.5,1.5
		c0.2,5.5-0.1,10.1-0.6,15.8l-0.1,0.9c-2.9,0.1-5.9-0.3-8.8-0.4c-3.2-0.2-6.3-0.5-9.5-0.8c0.4-0.4,1.1-0.7,1.5-1.2
		c0.7-0.7,1.5-1,2-1.8c-0.7-5.2-1-9.9-2-14.8l-0.3-1.4c-0.4-1.8-0.7-3.4-1-5.2c-0.8-4.1-1.5-7-2.5-11c-0.2-0.5-0.3-1.2-0.6-1.7
		c-0.2-0.6-0.2-0.8-0.4-1.4c-0.4-1.5-0.6-1.9-1.1-3.4c-0.4-1.2,0.1-2,0.3-3.4c0.2-0.7,0.2-1.1,0.4-1.9c0.2-1.3,0.5-2.6,0.9-3.9
		l0.2-0.3c2.4-1,4.8-1.1,7.4-1.7c1.4-0.2,3.6-0.2,5.2-0.3c0.7,0,1.1,0.1,2.1,0.1c0.8,0,1.7-0.1,2.2,0.1c0.4,0.1,1.6,2.2,3,4.5
		c0.4,0.6,0.7,1.1,1.1,1.7c0.7,0.9,0.8,1.3,1.6,2.3c0.4,0.5,0.4,0.7,0.7,1.2c1.2,1.4,1.4,2.2,2.2,3.2c0.3,0.3,0.7,0.5,1.1,0.4
		c0.7-0.1,0.6-0.5,0.9-1.2c0.2-0.7,0.4-1.3,0.8-2.3c0.6-1.9,1.1-2.9,1.7-4.9c0.2-0.8,0.6-1.5,0.9-2.3c0.5-1.3,1-2.9,1.2-3.1
		c0.2-0.1,2.2-0.1,3.3-0.2C203,45.8,203.5,45.8,204.8,45.8L204.8,45.8z"/>
	<path class="st1" d="M145.6,46.8c3.5,0.3,6.2,0.4,10.1,0.9c0.5,0.1,1,0.2,1.7,0.3c0.3,0.1,0.7,0.1,1.1,0.2c1.2,0.1,1.1,0.3,1.8,1.5
		c0.5,0.9,0.8,1.4,1.3,2.6c0.4,1.2,0.7,1.8,1.3,3.3c0.4,0.8,0.3,0.9,0.7,1.9c1.6,4.6,2.5,9,3.9,13.7c0.5,2.6,1,4.5,1.5,7.3
		c0.7,3.9,1.3,7.5,1.8,11.6c0.3,1.8,0.6,4.1,0.7,6c-1.2,1.4-2.7,2-4.1,3c-2.5,1.5-4.1,2.3-6.4,3.8c-0.5,0.2-1.1,0.6-1.5,0.7
		c-1.5,0.6-2.4,1-3.9,1.5l-1.1,0.4c-0.3-1.4-0.4-1.6-0.6-3.2c-0.1-0.7-0.3-1.6-0.5-2.5c-0.2-0.8-0.3-1.3-0.5-2.4
		c-0.2-0.8-0.3-1.7-0.3-1.9c-0.1-1-0.1-0.6-0.2-1.4c-0.3-1.2-0.5-2.4-0.6-2.9c-0.2-0.2-0.3-0.5-0.8-0.2c-1.6,0.3-2.1,0.6-3.4,1
		c-0.6,0.2-1,0.3-1.4,0.4c-1,0.4-2.3,0.1-2.4,1.4c0.2,3.8,0.1,7.8,0.3,11.7c-5.3-0.2-10.5-0.7-15.5-1.7c-0.8-0.3-1.7-0.2-2.5-0.6
		c-0.2-0.1-0.6-0.1-0.7-0.4c-0.1-1.2,0-2.6,0.2-4c0.6-4.5,0.5-9,1.3-13.5c0.2-1.4,0.3-2,0.5-3.2c0.2-1.4,0.6-3,0.7-4.4
		c0.1-0.3,0.2-1.6,0.3-1.9c0.3-2.1,0.6-3.9,1.2-6c0.2-1.3,0.5-2.4,0.8-3.5c0.1-0.6,0.8-3.5,0.8-3.5c0.2-1,0.5-2.2,0.7-3
		c0.3-1,1.2-4,1.7-5.9c0.8-2.5,1-4.8,2-6.9c0.1-0.1,0.4-0.1,0.5-0.1c1.7-0.1,2.7-0.3,4.4-0.3c0.8-0.1,2.3-0.2,2.9,0L145.6,46.8z"/>
	<path class="st2" d="M145.6,46.8c3.5,0.3,6.2,0.4,10.1,0.9c0.5,0.1,1,0.2,1.7,0.3c0.3,0.1,0.7,0.1,1.1,0.2c1.2,0.1,1.1,0.3,1.8,1.5
		c0.5,0.9,0.8,1.4,1.3,2.6c0.4,1.2,0.7,1.8,1.3,3.3c0.4,0.8,0.3,0.9,0.7,1.9c1.6,4.6,2.5,9,3.9,13.7c0.5,2.6,1,4.5,1.5,7.3
		c0.7,3.9,1.3,7.5,1.8,11.6c0.3,1.8,0.6,4.1,0.7,6c-1.2,1.4-2.7,2-4.1,3c-2.5,1.5-4.1,2.3-6.4,3.8c-0.5,0.2-1.1,0.6-1.5,0.7
		c-1.5,0.6-2.4,1-3.9,1.5l-1.1,0.4c-0.3-1.4-0.4-1.6-0.6-3.2c-0.1-0.7-0.3-1.6-0.5-2.5c-0.2-0.8-0.3-1.3-0.5-2.4
		c-0.2-0.8-0.3-1.7-0.3-1.9c-0.1-1-0.1-0.6-0.2-1.4c-0.3-1.2-0.5-2.4-0.6-2.9c-0.2-0.2-0.3-0.5-0.8-0.2c-1.6,0.3-2.1,0.6-3.4,1
		c-0.6,0.2-1,0.3-1.4,0.4c-1,0.4-2.3,0.1-2.4,1.4c0.2,3.8,0.1,7.8,0.3,11.7c-5.3-0.2-10.5-0.7-15.5-1.7c-0.8-0.3-1.7-0.2-2.5-0.6
		c-0.2-0.1-0.6-0.1-0.7-0.4c-0.1-1.2,0-2.6,0.2-4c0.6-4.5,0.5-9,1.3-13.5c0.2-1.4,0.3-2,0.5-3.2c0.2-1.4,0.6-3,0.7-4.4
		c0.1-0.3,0.2-1.6,0.3-1.9c0.3-2.1,0.6-3.9,1.2-6c0.2-1.3,0.5-2.4,0.8-3.5c0.1-0.6,0.8-3.5,0.8-3.5c0.2-1,0.5-2.2,0.7-3
		c0.3-1,1.2-4,1.7-5.9c0.8-2.5,1-4.8,2-6.9c0.1-0.1,0.4-0.1,0.5-0.1c1.7-0.1,2.7-0.3,4.4-0.3c0.8-0.1,2.3-0.2,2.9,0L145.6,46.8z"/>
	<path class="st1" d="M265.4,48.6c0,1,0.2,1.8,0.2,3.2c0.4,3.9,0.3,6.7,0.5,10.6c0.1,1.8,0,2.8,0.2,4.6l0,0.9c0,1.5,0.2,2.6,0.3,4.4
		c0.2,2.4,0.6,4.7,0.8,7.1c0.1,0.9,0.2,2,0.2,2.7c0.1,0.4-0.1,0.7,0.3,0.8c0.6,0.2,0.6,0,1.1,0c0.4,0,0.7-0.1,0.8-0.1
		c0.9,0.1,1.7-0.2,2.5-0.2c0.7-0.1,0.9-0.1,1.6-0.1c2.9-0.3,4.8-0.3,7.5-0.3c0.2,0.2,0.1,3.2,0.1,5.1c0,1.2,0.1,1.2,0.1,2.8
		c-0.1,0.8,0.1,2.2,0.1,3.2c0,3.5,0.2,5.5,0.1,8.8c0,0.6-0.7,0.6-1.6,0.6c-0.9,0.1-1.3,0.2-2,0.2c-1,0.1-1.3,0.1-2.7,0.3
		c-0.7,0.1-1.3,0.2-2,0.2c-3.3,0.3-5.1,0.5-8.4,0.9c-2.6,0.4-4.5,0.3-7.3,0.7c-0.8,0-1.2,0.1-1.9,0.1c-1,0.1-4.2,0.3-5.3,0.4
		c-1.5,0.1-2.3,0.2-3.6,0.2c-0.2,0.1-0.5,0-0.6-0.2l-0.3-1.5c-0.2-1.3-0.3-1.3-0.5-2.7c-0.2-0.7-0.3-0.9-0.2-1.1
		c0.6-0.1,1.4-0.5,1.5-1c0.2-1.6,0.2-3.7,0.3-5.4c-0.1-0.9,0-1.3-0.1-2.1c-0.2-4.5-0.1-8.5-0.5-13.1c-0.6-5.6-0.6-8.7-1.2-11.7
		c-0.1-1-0.3-2-0.3-2.5c0-0.4-0.1-0.8-0.1-1.1c-0.2-1.2-0.2-1.4-0.4-2.5c-0.1-0.8-0.3-1.7-0.4-2.6c-0.2-0.9-0.3-1.8-0.7-2.5
		c-0.2,0-0.3-0.1-0.4-0.2v0.1c-0.3-1.1-0.4-2.3-0.6-3.5c0.1-0.6,5.6-1.6,8.4-2.4c2.5-0.5,4.7-1.1,7.7-1.3c1.7-0.2,2.1-0.1,3.5-0.3
		l1.1-0.1C264,47.8,265.1,47.7,265.4,48.6"/>
	<path class="st2" d="M265.4,48.6c0,1,0.2,1.8,0.2,3.2c0.4,3.9,0.3,6.7,0.5,10.6c0.1,1.8,0,2.8,0.2,4.6l0,0.9c0,1.5,0.2,2.6,0.3,4.4
		c0.2,2.4,0.6,4.7,0.8,7.1c0.1,0.9,0.2,2,0.2,2.7c0.1,0.4-0.1,0.7,0.3,0.8c0.6,0.2,0.6,0,1.1,0c0.4,0,0.7-0.1,0.8-0.1
		c0.9,0.1,1.7-0.2,2.5-0.2c0.7-0.1,0.9-0.1,1.6-0.1c2.9-0.3,4.8-0.3,7.5-0.3c0.2,0.2,0.1,3.2,0.1,5.1c0,1.2,0.1,1.2,0.1,2.8
		c-0.1,0.8,0.1,2.2,0.1,3.2c0,3.5,0.2,5.5,0.1,8.8c0,0.6-0.7,0.6-1.6,0.6c-0.9,0.1-1.3,0.2-2,0.2c-1,0.1-1.3,0.1-2.7,0.3
		c-0.7,0.1-1.3,0.2-2,0.2c-3.3,0.3-5.1,0.5-8.4,0.9c-2.6,0.4-4.5,0.3-7.3,0.7c-0.8,0-1.2,0.1-1.9,0.1c-1,0.1-4.2,0.3-5.3,0.4
		c-1.5,0.1-2.3,0.2-3.6,0.2c-0.2,0.1-0.5,0-0.6-0.2l-0.3-1.5c-0.2-1.3-0.3-1.3-0.5-2.7c-0.2-0.7-0.3-0.9-0.2-1.1
		c0.6-0.1,1.4-0.5,1.5-1c0.2-1.6,0.2-3.7,0.3-5.4c-0.1-0.9,0-1.3-0.1-2.1c-0.2-4.5-0.1-8.5-0.5-13.1c-0.6-5.6-0.6-8.7-1.2-11.7
		c-0.1-1-0.3-2-0.3-2.5c0-0.4-0.1-0.8-0.1-1.1c-0.2-1.2-0.2-1.4-0.4-2.5c-0.1-0.8-0.3-1.7-0.4-2.6c-0.2-0.9-0.3-1.8-0.7-2.5
		c-0.2,0-0.3-0.1-0.4-0.2v0.1c-0.3-1.1-0.4-2.3-0.6-3.5c0.1-0.6,5.6-1.6,8.4-2.4c2.5-0.5,4.7-1.1,7.7-1.3c1.7-0.2,2.1-0.1,3.5-0.3
		l1.1-0.1C264,47.8,265.1,47.7,265.4,48.6L265.4,48.6z"/>
	<path class="st1" d="M237.5,55.1l0.9,0.1c1.5,0.2,3,0.5,4.6,0.9c0.1,1,0.4,1.6,0.5,2.7c0.2,1,0.3,1.6,0.5,2.8
		c0.2,1.9,0.3,1.9,0.5,4.2c0.1,1.3,0.2,1.9,0.3,2.8c0.4,3.5,0.5,6.1,0.9,9.7c0,1.2,0.3,2.4,0.3,3.9c0.1,1.7,0.1,2.7,0.1,4.1
		c0,0.9,0.1,1.6,0.1,2.3c0.1,0.7,0,1.1,0.1,2c-0.1,1.8,0,2.4-0.1,3.9c0,0.1-0.1,0.9-0.1,1l-0.1,1.2c0,0.7-0.1,1-0.1,1.5l-0.4,0.2
		c-1.4,0.3-2.8,0.7-3.5,0.8c-1.2,0.3-2.1,0.3-3.4,0.5c-1.8,0.2-3.5,0.4-5.3,0.3c-1.5,0.1-3.1-0.2-4.6-0.2c-0.2,0-1.3,0-1.9-0.2
		c0,0-0.6-0.1-1.1-0.2c-0.7,0-0.7,0-1.2-0.2c-1-0.2-1.7-0.1-1.8-0.6c-0.1-3.7-0.2-6.7-0.3-10.4l0-1.3c-0.1-1.2-0.1-1.1-0.1-2
		c-0.1-2.4-0.2-3.1-0.3-5.9c-0.1-1.6-0.2-2.5-0.3-4.1c0-1.1-0.1-2-0.1-2.2c-0.4-5.2-0.5-8.2-1-13.3c-0.1-1-0.3-1.9-0.3-2.9v-0.2
		l0.8-0.2c3.3-0.9,4.3-0.9,8.4-1.2l1.8-0.1C233.8,55,235.3,54.9,237.5,55.1"/>
	<path class="st2" d="M237.5,55.1l0.9,0.1c1.5,0.2,3,0.5,4.6,0.9c0.1,1,0.4,1.6,0.5,2.7c0.2,1,0.3,1.6,0.5,2.8
		c0.2,1.9,0.3,1.9,0.5,4.2c0.1,1.3,0.2,1.9,0.3,2.8c0.4,3.5,0.5,6.1,0.9,9.7c0,1.2,0.3,2.4,0.3,3.9c0.1,1.7,0.1,2.7,0.1,4.1
		c0,0.9,0.1,1.6,0.1,2.3c0.1,0.7,0,1.1,0.1,2c-0.1,1.8,0,2.4-0.1,3.9c0,0.1-0.1,0.9-0.1,1l-0.1,1.2c0,0.7-0.1,1-0.1,1.5l-0.4,0.2
		c-1.4,0.3-2.8,0.7-3.5,0.8c-1.2,0.3-2.1,0.3-3.4,0.5c-1.8,0.2-3.5,0.4-5.3,0.3c-1.5,0.1-3.1-0.2-4.6-0.2c-0.2,0-1.3,0-1.9-0.2
		c0,0-0.6-0.1-1.1-0.2c-0.7,0-0.7,0-1.2-0.2c-1-0.2-1.7-0.1-1.8-0.6c-0.1-3.7-0.2-6.7-0.3-10.4l0-1.3c-0.1-1.2-0.1-1.1-0.1-2
		c-0.1-2.4-0.2-3.1-0.3-5.9c-0.1-1.6-0.2-2.5-0.3-4.1c0-1.1-0.1-2-0.1-2.2c-0.4-5.2-0.5-8.2-1-13.3c-0.1-1-0.3-1.9-0.3-2.9v-0.2
		l0.8-0.2c3.3-0.9,4.3-0.9,8.4-1.2l1.8-0.1C233.8,55,235.3,54.9,237.5,55.1L237.5,55.1z"/>
	<path class="st0" d="M148,73.7c0.4,1.4,1.2,3.1,0.7,3.5c-0.3,0.3-0.8,0.4-1.9,0.8c-0.8,0.2-0.9,0.1-1-0.2c0.1-1.6,0.3-2.9,0.5-4.2
		c0.1-0.8,0.1-1.2,0.7-1.3C147.6,72.1,147.8,73.2,148,73.7"/>
	<path class="st0" d="M286.8,119.1c-1.1-0.7-2.3-1.3-3.5-1.8c0,0-0.5-0.3-1.1-0.5c-1.4-0.6-2.8-1.1-4.1-1.7c-3.2-1.3-6.7-2-10.1-3
		c-1.3-0.3-2.8-0.6-3.7-0.7c-0.6,0.2-0.5,0.6-0.8,1.4c-0.4,0.9-1,0.2-1.6-0.1c-0.4-0.3-0.5-0.4-0.8-0.5c-0.7-0.1-1.1,1.4-1.8,2.5
		c-0.5,1.2-0.6,1.3-1.3,2.6c-0.5,0.8-0.9,1.7-1.4,2.4c-0.1,0.3-1.3,2.5-1.8,3.4c-0.3,0.6-0.5,0.9-0.8,0.9c-0.6-0.4-1.1-0.9-1.8-1.4
		c-0.3-0.2-0.6-0.7-1-1.1c-0.5-0.5-0.7-0.8-1.2-1.4c-0.9-0.9-1-1-1.9-1.9c-0.8-1-1.1-1.3-1.7-2.2c-0.4-0.5-0.5-0.6-0.7-1.1
		c-0.5-0.6-0.3-0.5-0.6-1c-0.3-0.6-0.4-0.7-0.7-1.3c-0.3-0.5-0.4-1-0.7-1.4c-0.3-0.2-0.6,0-1,0.1c-2.9,0.6-5.5,1.4-8.1,2
		c-1.3,0.4-1.8,0.5-3,0.9c-2.3,0.6-3.8,1.2-5.8,2c-0.6,0.1-1.4,0.1-1.9-0.1c-1.7-0.1-3.4-0.2-5-0.2c-2.3,0.1-3.6,0.4-5.3,0.6
		c-2.5,0.3-3.6,0-3.5,0.7c0,0.5,0.1,0.6,0,1.2c-1.1,0.2-1.4,0.1-2.3,0.3c-0.3,0.1-0.3,0.5-0.4,0.7c0.3,4.2,0.9,8.3,0.3,13.1
		c-0.2,1.7-0.5,3.8-2.3,4.8c-0.8,0.1-1.6-0.4-2.1-0.7c-1.9-1.7-3.3-4.4-3.8-7c-0.6-3.9-1.3-7.8-0.5-12c0.1-0.7,0.5-1.3,0.6-1.9
		c-0.1-0.5-0.2-0.8-0.9-0.8c-0.3-0.1-0.4,0-0.7,0c-2.1,0.2-4.2,0.5-6.4,0.7c-1.6,0.1-1.5,0.1-3.1,0.4c-0.6,0.2-1.6,0.4-2.2,0.5
		c-1.3,0.4-2,0.7-3.4,1.1c-1.2,0.3-1.8,0.7-2.8,0.8c-0.3,0.1-0.2-1-0.6-1.4c-0.2-0.1-0.6-0.4-1.3-0.6c-0.9-0.5-1.6-0.9-2.5-1.3
		c-2-0.9-2.6-1.1-3.2-1.3c-1-0.4-1-0.3-1.8-0.6c-1.8-0.5-1.9-0.4-3.4-0.8c-1.3-0.1-1.9-0.5-3.6-0.6c-1.1-0.2-2-0.2-2.5-0.2h-2.9
		l-0.5,0.1c-0.5,0-0.5,0-0.9,0.1c-4,0.3-7.4,1.4-11.1,2.3c-0.9,0.3-1.1,0.4-1.7,0.6c-1.7,0.6-1.8,0.5-3,1.2
		c-0.6,0.3-0.9,0.5-1.2,0.6c-0.8,0.4-1.4,0.6-2.1,1.1c-0.6,0.3-0.7,0.4-1.3,0.7c-0.2,0.1-0.6,0.4-1.2,0.7c-0.5,0.4-0.9,0.6-1.4,1
		c-0.8,0.5-0.9,0.7-1.4,1.1c-0.7,0.5-1.1,0.8-1.4,1.2c-0.5,0.5-1.4,1.4-1.7,1.7c-0.4,0.4-0.8,0.8-1.1,1c-0.5,0.6-0.4,0.5-0.9,0.9
		c-0.8,0.3-1.4,0.7-2,1.1c-1.4,1.1-2.7,2.3-3.9,3.8c-2.5,3.5-3.5,7.7-4.2,11.9c-0.2,2.1-0.4,2.9-0.2,5c0.1,1.6,0.1,2.1,0.2,3.2
		l0.3,2c0.7,4.7,2.2,7.5,4.5,11c0.1,0.2,0.8,1,1.5,2.1c0.9,1.2,2.3,2.6,2.3,2.6c0.6,0.4,0.7,0.7,1.5,1.2c0.6,0.5,1.2,1,1.6,1.4
		c0,0,2.7,2.3,4.2,3.1c0.9,0.6,2.2,1.4,3.2,1.9c1.5,0.8,2.8,1.2,4.3,1.7c1,0.2,1.2,0.4,2.1,0.7c0.5,0.2,0.6,0.2,1.5,0.4
		c1,0.4,1.7,0.5,2.4,0.7c1.3,0.2,2.4,0.6,3.8,0.8c0.8,0.2,0.8,0.1,1.6,0.3c0.7,0.1,1.4,0.2,2.1,0.3c3.3,0.3,4.1,0.3,7.7,0
		c0.8-0.1,1.8-0.2,1.8-0.2c0.6-0.1,0.7-0.1,1.4-0.2c0.9-0.1,0.9-0.1,1.9-0.3c0.7-0.1,0.8-0.1,1.8-0.4c0,0,1.7-0.5,2.6-0.7
		c2.1-0.6,3.9-1,5.7-1.8c1.5-0.6,1.6-0.7,2.6-1.3c0.7-0.4,0.5-1.1,0.5-1.9c0-0.7,0-1-0.1-1.5c0.3-0.5,1.3-1.1,1.7-1.4
		c0.1-3.2,0.1-5.6,0-8.4c0.1-0.2,0.1-0.4,0.4-0.2c1.2,1.9,2.8,3.2,4.7,4.6c0.8,0.5,0.8,0.5,1.6,1c0.5,0.3,0.5,0.4,1.2,0.8
		c4.3,1.9,8.2,3.4,13.3,2.9c0.8-0.1,0.8-0.1,1.7-0.2c1.3-0.2,1.5-0.4,2.7-0.6c0.6-0.2,1.1-0.2,1.6-0.5c0.8-0.3,0.9-0.3,1.4-0.5
		c1.4-0.6,1.8-0.8,2.8-1.6c0.2-0.2,0.6-0.4,1-0.9c0.8-0.8,0.6-1.1,1.6-1.4c2.5-1.4,5.1-2.7,6.8-4.7c2.9-2.6,5.2-5.9,6.9-9.6
		c1-2.7,2.3-5.4,3.3-8c0.8,0.8,1.7,1.8,2.4,2.6c0.8,0.7,0.9,0.9,1.5,1.3c0.9,0.8,2.4,1.5,2.4,2.5c0,3.2,0,6.3-0.1,9.4
		c0,1.4-0.1,1.5,0.1,4c0,0.8,0,1.3,0.1,2.2c0.2,2.2,0.2,2.5,0.3,3.9c0,0.7,0.1,1.3,0.2,2.4c0,0.6,0.2,1.3,0.2,1.8
		c0.1,0.6,0.1,0.6,0.1,1.2c0.1,0.8,0.1,1,0.3,2.1c0.1,0.1,0.1,0.4,0.3,0.5c0.3,0.1,0.5,0,1.3,0.1c0.8,0,1.4,0,1.4,0
		c2.8-0.3,5.1-0.3,7.8-0.6c1.4-0.1,1.5-0.1,2.7-0.3c1.2,0,2.7-0.3,4.3-0.5c0.7-0.1,1.8-0.1,3-0.3c2.1-0.2,3.2-0.4,5.1-0.7l1.4-0.2
		c0.6-0.2,0.5-0.1,1.2-0.3c0.8,0,0.3-1.3,0.3-2.5c0.7-0.3,2.1-0.3,2.4-0.7c0.3-0.3,0.1-0.9,0-2.2c0,0-0.7-5.2-0.7-5.5
		c-0.6-4.5-0.7-5.3-0.9-7.9c-0.2-3.1-0.9-6.2-1.1-9.3c1.7-1.4,3.1-3.1,4.6-4.6c0.5-0.5,1-1,1.4-1.6c0.5-0.5,1.2-1.3,1.2-1.3
		c1.7-1.9,2.3-3,4-5.2c0.7-1.1,1.4-1.9,2-3c0.5-0.8,0.6-0.9,0.9-1.6c0.2-0.3,0.4-0.6,0.6-1.1c0.5-0.8,0.7-1.3,1.3-2.3
		c0.3-0.9,0.8-1.5,1.1-2.5c0.6-1.7,1.1-3.1,1.3-4C287.3,119.5,287.1,119.2,286.8,119.1 M171.8,143.3c-0.7-0.1-1.8-0.1-2.6-0.2
		c-2.2-0.1-4.2,0.2-6.3,0c-2.3,0-5.3,0.2-7.6,0.3c-0.6,0-0.2,1-0.3,1.8c-1,0.2-1.8,0.2-2.8,0.2l-0.3,0c0,3.2,0.4,6.4,0.4,9.5
		c-1.1-0.7-2.1-1.4-2.9-2.4c-1-1.4-2.2-3.1-1.5-4.9c0.5-1.4,1.3-3,2.3-4c2.9-3.1,7.1-4.2,11.3-4.5c0.9-0.1,4.1-0.1,4.1-0.1
		c1,0,1.4,0.1,2.1,0c0.7,0.1,3.2,0.2,4,0.2c0.7,0.2,2-0.1,2.4,0.8c0.1,1.1,0.1,2.3,0.3,3.3C173.6,143.4,172.7,143.4,171.8,143.3"/>
	<path class="st1" d="M245.9,116.6c1,1.5,2.4,2.9,3.6,4.2c0.3,0.4,0.5,0.5,0.9,1c0.9,1.1,1.4,1.5,2.2,2.2c0.4,0.4,0.5,0.5,1,0.8
		c0.8,0.7,1.2,0.8,2.2,1.5c0.3,0.2,0.7,0.6,1.2-0.2c0.9-0.8,1.2-1.8,2-2.7c0.3-0.7,0.6-1.1,1-1.8c0.6-1.2,1.4-2.2,1.9-3.3
		c0.9-1.9,1.5-3.1,2.3-5c0.2-0.5,0.3-0.6,0.5-1c1.7,0.3,3.5,0.6,5.1,1.1c1.2,0.2,1.5,0.4,2.5,0.6c1.2,0.5,2.1,0.6,3.7,1.2
		c1.5,0.6,3,1.1,4.6,1.9c1.9,0.6,3.5,1.5,5.2,2.4c0.7,0.3,0.4,0.7,0.2,1.4c-0.3,0.8-0.4,1.4-0.8,2.1c-0.5,1.2-0.7,1.8-1.5,3.3
		c-0.2,0.6-0.5,1-0.9,1.6c-0.7,1.1-0.9,1.6-1.7,2.6c-0.7,1.3-1.1,1.8-1.7,2.8c-0.6,0.7-0.8,1.1-1.7,2.1c-0.5,0.9-0.6,1-1.2,1.7
		c-0.4,0.5-0.8,0.9-1,1.2c-1,1.3-0.9,1.1-2,2.4c-0.4,0.4-0.9,1-1.7,1.9c-0.6,0.6-0.9,0.9-1.6,1.6c-0.6,0.7-1,1.2-1.8,1.9
		c-0.3,0.4-1.4,0.7-0.8,1.5c0.7,3.9,1.1,7.6,1.5,11.5c0.1,1,0.2,1.7,0.4,3.1c0.1,0.9,0.1,1.2,0.3,2.9c0.1,1.1,0.2,1.3,0.3,2.1
		c0.1,0.5,0.1,0.7,0.2,1.3c0.2,1.6,0.4,2.2,0.2,2.6c0.1,0.4-2.2,0.7-3.5,1c-2.1,0.3-2.3,0.3-4.2,0.6l-1.1,0.2
		c-1.7,0.2-1.8,0.2-3.2,0.4c-0.8,0.1-1.3,0.2-1.9,0.2c-2.1,0.2-3.9,0.5-6,0.5c-1.4,0.2-1.5,0.1-3.2,0.3c-0.9,0.1-2.5,0.3-3.3,0.2
		c-0.2-1.5-0.3-2.6-0.5-4.3c-0.1-0.9-0.1-1.4-0.1-2.1c-0.1-0.7-0.1-1.5-0.1-2.5c-0.1-1.4-0.1-2.6-0.1-3.5c0-1.9,0-1.2,0-2.9
		c-0.2-3.8,0.1-6.9,0-10.6l-0.2-0.3c-1.8-1.5-3.6-2.5-5-4.1c-0.9-0.8-1.3-1.1-2.1-1.9c-0.5-0.6-0.6-0.8-1-1.4
		c-0.7-0.9-0.8-1.1-1.3-1.8c-0.1-0.5,0-1.7,0-2.9l0-1.7l-0.1-3.6c-0.4-4.5-0.8-7.4-1.4-11.4l-0.5-2.2c-1-0.5-1.4-0.5-2.4-0.6
		c-0.3,0-0.9-0.2-1.2-0.2c0.7-0.5,1.4-0.6,2.3-0.9c1.5-0.4,2.3-0.7,3.7-1.1c0.2-0.2,1.5-0.4,2.6-0.8c0.9-0.2,1.5-0.4,2.6-0.7
		c0.2,0,1-0.2,1.5-0.4c1-0.2,2.3-0.7,2.3-0.4C244,113.6,244.6,115.2,245.9,116.6"/>
	<path class="st2" d="M245.9,116.6c1,1.5,2.4,2.9,3.6,4.2c0.3,0.4,0.5,0.5,0.9,1c0.9,1.1,1.4,1.5,2.2,2.2c0.4,0.4,0.5,0.5,1,0.8
		c0.8,0.7,1.2,0.8,2.2,1.5c0.3,0.2,0.7,0.6,1.2-0.2c0.9-0.8,1.2-1.8,2-2.7c0.3-0.7,0.6-1.1,1-1.8c0.6-1.2,1.4-2.2,1.9-3.3
		c0.9-1.9,1.5-3.1,2.3-5c0.2-0.5,0.3-0.6,0.5-1c1.7,0.3,3.5,0.6,5.1,1.1c1.2,0.2,1.5,0.4,2.5,0.6c1.2,0.5,2.1,0.6,3.7,1.2
		c1.5,0.6,3,1.1,4.6,1.9c1.9,0.6,3.5,1.5,5.2,2.4c0.7,0.3,0.4,0.7,0.2,1.4c-0.3,0.8-0.4,1.4-0.8,2.1c-0.5,1.2-0.7,1.8-1.5,3.3
		c-0.2,0.6-0.5,1-0.9,1.6c-0.7,1.1-0.9,1.6-1.7,2.6c-0.7,1.3-1.1,1.8-1.7,2.8c-0.6,0.7-0.8,1.1-1.7,2.1c-0.5,0.9-0.6,1-1.2,1.7
		c-0.4,0.5-0.8,0.9-1,1.2c-1,1.3-0.9,1.1-2,2.4c-0.4,0.4-0.9,1-1.7,1.9c-0.6,0.6-0.9,0.9-1.6,1.6c-0.6,0.7-1,1.2-1.8,1.9
		c-0.3,0.4-1.4,0.7-0.8,1.5c0.7,3.9,1.1,7.6,1.5,11.5c0.1,1,0.2,1.7,0.4,3.1c0.1,0.9,0.1,1.2,0.3,2.9c0.1,1.1,0.2,1.3,0.3,2.1
		c0.1,0.5,0.1,0.7,0.2,1.3c0.2,1.6,0.4,2.2,0.2,2.6c0.1,0.4-2.2,0.7-3.5,1c-2.1,0.3-2.3,0.3-4.2,0.6l-1.1,0.2
		c-1.7,0.2-1.8,0.2-3.2,0.4c-0.8,0.1-1.3,0.2-1.9,0.2c-2.1,0.2-3.9,0.5-6,0.5c-1.4,0.2-1.5,0.1-3.2,0.3c-0.9,0.1-2.5,0.3-3.3,0.2
		c-0.2-1.5-0.3-2.6-0.5-4.3c-0.1-0.9-0.1-1.4-0.1-2.1c-0.1-0.7-0.1-1.5-0.1-2.5c-0.1-1.4-0.1-2.6-0.1-3.5c0-1.9,0-1.2,0-2.9
		c-0.2-3.8,0.1-6.9,0-10.6l-0.2-0.3c-1.8-1.5-3.6-2.5-5-4.1c-0.9-0.8-1.3-1.1-2.1-1.9c-0.5-0.6-0.6-0.8-1-1.4
		c-0.7-0.9-0.8-1.1-1.3-1.8c-0.1-0.5,0-1.7,0-2.9l0-1.7l-0.1-3.6c-0.4-4.5-0.8-7.4-1.4-11.4l-0.5-2.2c-1-0.5-1.4-0.5-2.4-0.6
		c-0.3,0-0.9-0.2-1.2-0.2c0.7-0.5,1.4-0.6,2.3-0.9c1.5-0.4,2.3-0.7,3.7-1.1c0.2-0.2,1.5-0.4,2.6-0.8c0.9-0.2,1.5-0.4,2.6-0.7
		c0.2,0,1-0.2,1.5-0.4c1-0.2,2.3-0.7,2.3-0.4C244,113.6,244.6,115.2,245.9,116.6z"/>
	<path class="st1" d="M159.9,112.6c2.1-0.1,2.8,0.1,4.9,0.3c1.1,0.3,1.2,0.3,2.4,0.5c0.8,0.1,0.9,0.2,1.5,0.4
		c0.3,0.1,0.5,0.2,1.1,0.4c1.1,0.4,1.5,0.4,2.5,0.9c0.6,0.1,1,0.5,1.7,0.6c1.5,0.6,3.1,1.4,4.6,2.2c0.4,1.2,0.5,2.6,0.7,3.9
		c0.1,1.8,0.3,2.7,0.4,5.1c0.1,1.4,0.2,1.8,0.1,3.3c0,1.1,0,0.9,0,1.6c0,0.9,0,1-0.1,2.1l-0.2,1.4c-0.1,0.9-0.1,0.9-0.3,1.8
		c-0.2,0.2-0.2,0.2-0.5,0.1c-0.6-0.2-1.1-0.2-1.6-0.4c-2.2-0.5-2.7-0.7-4.8-0.8c-0.7-0.1-1.1-0.2-1.9-0.2c-2.2-0.3-5-0.2-7.3-0.2
		c-2.5,0.1-2.6,0.1-4.6,0.5c-0.8,0.1-1.2,0.4-1.9,0.5c-1.7,0.6-2.8,1-3.9,1.7c-0.8,0.6-1.7,1.2-2.3,1.8c-0.7,0.6-1.3,1.1-1.8,1.9
		c-1.7,2.2-2.5,4.9-2.1,7.4l0.1,0.5c0.6,2.1,1.9,3.9,3.7,5.1c0.7,0.6,1.1,0.9,2.1,1.4c1.5,0.6,2.7,1,4.7,1.3c2.4,0,4,0,5.5-1.9
		c0.5-0.6,0.9-1.2,1-2c0-0.4-0.2-0.6-0.5-0.6c-2.6,0.1-4.3,0.2-6.7,0.2c-0.3,0-0.3-0.3-0.3-0.6c0-3-0.5-5.6-0.3-8.5
		c0.6-0.2,1.2-0.1,1.9-0.2c0.4,0,1.3-0.1,1.9-0.1c2.1,0,2.2,0,4.1,0c1.5-0.1,1.9,0,3.4-0.1c1.6,0.1,2.3,0.1,4,0.2
		c0.9,0,1.6,0.1,2.8,0.2c0.6,0,1.1,0,1.8,0.1c1.6,0,3.6,0,3.7,0.6c0.6,2.7,0.5,5.9,0.7,8.9c0.3,3.8,0.5,7.9,0.7,11.7
		c0.1,1.8,0,3.3,0.1,5.1c-1.2,1-2.2,1.5-3.8,2.3c-1.2,0.7-1.5,0.8-2.6,1.2c-1.2,0.5-1.7,0.7-3.3,1.2c-1.1,0.4-1.2,0.4-1.8,0.5
		c-0.3,0.1-0.8,0.2-1,0.3c-3.3,0.7-6.5,1.2-10,1.2c-0.9,0.1-1.2,0-2.5,0c0,0-2.1-0.2-2.6-0.3c-0.6-0.1-0.8-0.1-1.6-0.2
		c0,0-2.8-0.7-3.4-0.8c0,0-1.5-0.4-1.5-0.4c-0.5-0.1-2.5-0.6-2.9-0.8c-0.7-0.2-2-0.7-2-0.7s-1.7-0.7-2.7-1.2
		c-1.9-0.9-3.5-1.7-5.1-3.1c-2.7-1.7-4.1-3.7-5.7-5.4c-3.2-4.2-5.6-9.1-6.4-14.4c-0.5-2.7-0.7-5.2-0.7-7.1c0.1-0.8,0-1.3,0.1-2
		c0.1-0.9,0.1-0.9,0.3-1.8c0.1-0.9,0.2-1.3,0.4-2.1c0.2-0.9,0.6-1.9,0.7-2.1c0.2-0.7,0.3-0.8,0.7-1.8c0.5-1.1,0.5-1.1,1-1.9
		c1.1-1.6,1.1-1.5,2.3-2.9c1.1-1.4,2.3-2.6,3.4-3.6c0.9-0.8,1.9-1.8,2.7-2.6c0.9-0.7,1.5-1.1,2.5-1.8c0.7-0.5,1.7-1,2.5-1.6
		c1.3-0.6,2.5-1.5,4-2.1l1.5-0.6c1.2-0.5,3.4-1.2,4-1.3c2.5-0.7,4.8-1.2,7.3-1.7c0.7-0.1,0.8-0.1,1.7-0.2c0.6-0.1,1.1-0.2,1.6-0.2
		C158.6,112.7,159.4,112.6,159.9,112.6"/>
	<path class="st2" d="M159.9,112.6c2.1-0.1,2.8,0.1,4.9,0.3c1.1,0.3,1.2,0.3,2.4,0.5c0.8,0.1,0.9,0.2,1.5,0.4
		c0.3,0.1,0.5,0.2,1.1,0.4c1.1,0.4,1.5,0.4,2.5,0.9c0.6,0.1,1,0.5,1.7,0.6c1.5,0.6,3.1,1.4,4.6,2.2c0.4,1.2,0.5,2.6,0.7,3.9
		c0.1,1.8,0.3,2.7,0.4,5.1c0.1,1.4,0.2,1.8,0.1,3.3c0,1.1,0,0.9,0,1.6c0,0.9,0,1-0.1,2.1l-0.2,1.4c-0.1,0.9-0.1,0.9-0.3,1.8
		c-0.2,0.2-0.2,0.2-0.5,0.1c-0.6-0.2-1.1-0.2-1.6-0.4c-2.2-0.5-2.7-0.7-4.8-0.8c-0.7-0.1-1.1-0.2-1.9-0.2c-2.2-0.3-5-0.2-7.3-0.2
		c-2.5,0.1-2.6,0.1-4.6,0.5c-0.8,0.1-1.2,0.4-1.9,0.5c-1.7,0.6-2.8,1-3.9,1.7c-0.8,0.6-1.7,1.2-2.3,1.8c-0.7,0.6-1.3,1.1-1.8,1.9
		c-1.7,2.2-2.5,4.9-2.1,7.4l0.1,0.5c0.6,2.1,1.9,3.9,3.7,5.1c0.7,0.6,1.1,0.9,2.1,1.4c1.5,0.6,2.7,1,4.7,1.3c2.4,0,4,0,5.5-1.9
		c0.5-0.6,0.9-1.2,1-2c0-0.4-0.2-0.6-0.5-0.6c-2.6,0.1-4.3,0.2-6.7,0.2c-0.3,0-0.3-0.3-0.3-0.6c0-3-0.5-5.6-0.3-8.5
		c0.6-0.2,1.2-0.1,1.9-0.2c0.4,0,1.3-0.1,1.9-0.1c2.1,0,2.2,0,4.1,0c1.5-0.1,1.9,0,3.4-0.1c1.6,0.1,2.3,0.1,4,0.2
		c0.9,0,1.6,0.1,2.8,0.2c0.6,0,1.1,0,1.8,0.1c1.6,0,3.6,0,3.7,0.6c0.6,2.7,0.5,5.9,0.7,8.9c0.3,3.8,0.5,7.9,0.7,11.7
		c0.1,1.8,0,3.3,0.1,5.1c-1.2,1-2.2,1.5-3.8,2.3c-1.2,0.7-1.5,0.8-2.6,1.2c-1.2,0.5-1.7,0.7-3.3,1.2c-1.1,0.4-1.2,0.4-1.8,0.5
		c-0.3,0.1-0.8,0.2-1,0.3c-3.3,0.7-6.5,1.2-10,1.2c-0.9,0.1-1.2,0-2.5,0c0,0-2.1-0.2-2.6-0.3c-0.6-0.1-0.8-0.1-1.6-0.2
		c0,0-2.8-0.7-3.4-0.8c0,0-1.5-0.4-1.5-0.4c-0.5-0.1-2.5-0.6-2.9-0.8c-0.7-0.2-2-0.7-2-0.7s-1.7-0.7-2.7-1.2
		c-1.9-0.9-3.5-1.7-5.1-3.1c-2.7-1.7-4.1-3.7-5.7-5.4c-3.2-4.2-5.6-9.1-6.4-14.4c-0.5-2.7-0.7-5.2-0.7-7.1c0.1-0.8,0-1.3,0.1-2
		c0.1-0.9,0.1-0.9,0.3-1.8c0.1-0.9,0.2-1.3,0.4-2.1c0.2-0.9,0.6-1.9,0.7-2.1c0.2-0.7,0.3-0.8,0.7-1.8c0.5-1.1,0.5-1.1,1-1.9
		c1.1-1.6,1.1-1.5,2.3-2.9c1.1-1.4,2.3-2.6,3.4-3.6c0.9-0.8,1.9-1.8,2.7-2.6c0.9-0.7,1.5-1.1,2.5-1.8c0.7-0.5,1.7-1,2.5-1.6
		c1.3-0.6,2.5-1.5,4-2.1l1.5-0.6c1.2-0.5,3.4-1.2,4-1.3c2.5-0.7,4.8-1.2,7.3-1.7c0.7-0.1,0.8-0.1,1.7-0.2c0.6-0.1,1.1-0.2,1.6-0.2
		C158.6,112.7,159.4,112.6,159.9,112.6L159.9,112.6z"/>
	<path class="st1" d="M232.3,140.2c0.1,3.7-1.6,6-2.5,8.5c-0.4,0.7-0.6,1.3-0.9,2c-0.3,0.8-0.3,0.6-0.6,1.4
		c-0.3,0.5-0.5,0.9-0.8,1.5c-1,2.1-1.8,3.4-3.4,4.9c-0.9,1-1.3,1.3-2.2,2.2c-0.5,0.6-0.5,0.6-1.1,1.1c-0.5,0.4-0.5,0.5-1.1,0.8
		c-0.9,0.7-1.5,1-2.5,1.7c-0.5,0.3-0.9,0.5-1.4,0.7c-0.5,0.3-0.8,0.4-1.6,0.7c-1.8,0.9-3.6,1.7-5.6,1.9c-1.1,0.2-0.7,0.1-2,0.3
		l-0.8,0.1c-1.9,0.1-3.7,0-5.4-0.2c-1.6-0.2-2.7-0.5-4.2-1c-1.8-0.7-3.3-1.4-5.1-2.3c-0.6-0.3-0.7-0.3-1.1-0.5
		c-0.8-0.4-0.9-0.6-1.7-1.1c-1.6-1-2-1.6-3.2-2.6c-1.1-1.1-2.2-2.2-3-3.6c-0.6-1.1-1-2.3-1.2-3.8c-0.3-2.6-0.3-4.5-0.7-7
		c0-0.5-0.1-1-0.2-1.3c-0.5-0.7-1.3-0.6-1.9-0.8c-0.5-1.6-0.6-3.3-0.8-5c0.1-0.5,0.3-0.3,0.7-0.2c0.6,0.2,0.9,0.2,1.4,0.3
		c0.8-0.9,0.9-2.1,1-3.2c0.6-5.2-0.1-10.7-0.6-16c1.2-0.3,2.3-0.8,3.8-1.2c0.5-0.2,1-0.3,1.5-0.5c1.6-0.5,1.8-0.6,4.3-1
		c0.5-0.1,1.6-0.2,1.6-0.2c0.9-0.1,1.2-0.1,2-0.2c0.8-0.1,1.1-0.1,2.2-0.1c0.9-0.1,1.6-0.2,2.3-0.2l0.2,0.1c-1,3.6-0.7,7.9-0.2,11.8
		c0.5,2.8,1,5.6,2.9,7.8c0.6,0.8,1.4,1.5,2.4,2.2c0.5,0.2,0.5,0.2,1.1,0.4c0.4,0.1,0.5,0,1.2,0.1c1.9-0.3,3.7-0.7,4.9-2.5
		c1-1.9,1.2-3.7,1.4-6.2c0.1-3.9-0.2-8-0.4-11.7l0.4-0.1c2.8-0.2,3.6-0.7,7.4-0.7l2.2-0.1c1.7,0,2.3,0.1,3.8,0.1
		c0.7,0.1,1,0.1,1.5,0.2c1.2,0.2,2.5,0.2,3.6,0.7c0.9,2.6,1,5.4,1.5,8.2l0.1,1.5c0.1,1.3,0.3,1.7,0.4,3.6c0.2,2.3,0,3.2,0.2,5.3
		c0,0.9-0.1,2.4-0.2,2.8L232.3,140.2z"/>
	<path class="st2" d="M232.3,140.2c0.1,3.7-1.6,6-2.5,8.5c-0.4,0.7-0.6,1.3-0.9,2c-0.3,0.8-0.3,0.6-0.6,1.4
		c-0.3,0.5-0.5,0.9-0.8,1.5c-1,2.1-1.8,3.4-3.4,4.9c-0.9,1-1.3,1.3-2.2,2.2c-0.5,0.6-0.5,0.6-1.1,1.1c-0.5,0.4-0.5,0.5-1.1,0.8
		c-0.9,0.7-1.5,1-2.5,1.7c-0.5,0.3-0.9,0.5-1.4,0.7c-0.5,0.3-0.8,0.4-1.6,0.7c-1.8,0.9-3.6,1.7-5.6,1.9c-1.1,0.2-0.7,0.1-2,0.3
		l-0.8,0.1c-1.9,0.1-3.7,0-5.4-0.2c-1.6-0.2-2.7-0.5-4.2-1c-1.8-0.7-3.3-1.4-5.1-2.3c-0.6-0.3-0.7-0.3-1.1-0.5
		c-0.8-0.4-0.9-0.6-1.7-1.1c-1.6-1-2-1.6-3.2-2.6c-1.1-1.1-2.2-2.2-3-3.6c-0.6-1.1-1-2.3-1.2-3.8c-0.3-2.6-0.3-4.5-0.7-7
		c0-0.5-0.1-1-0.2-1.3c-0.5-0.7-1.3-0.6-1.9-0.8c-0.5-1.6-0.6-3.3-0.8-5c0.1-0.5,0.3-0.3,0.7-0.2c0.6,0.2,0.9,0.2,1.4,0.3
		c0.8-0.9,0.9-2.1,1-3.2c0.6-5.2-0.1-10.7-0.6-16c1.2-0.3,2.3-0.8,3.8-1.2c0.5-0.2,1-0.3,1.5-0.5c1.6-0.5,1.8-0.6,4.3-1
		c0.5-0.1,1.6-0.2,1.6-0.2c0.9-0.1,1.2-0.1,2-0.2c0.8-0.1,1.1-0.1,2.2-0.1c0.9-0.1,1.6-0.2,2.3-0.2l0.2,0.1c-1,3.6-0.7,7.9-0.2,11.8
		c0.5,2.8,1,5.6,2.9,7.8c0.6,0.8,1.4,1.5,2.4,2.2c0.5,0.2,0.5,0.2,1.1,0.4c0.4,0.1,0.5,0,1.2,0.1c1.9-0.3,3.7-0.7,4.9-2.5
		c1-1.9,1.2-3.7,1.4-6.2c0.1-3.9-0.2-8-0.4-11.7l0.4-0.1c2.8-0.2,3.6-0.7,7.4-0.7l2.2-0.1c1.7,0,2.3,0.1,3.8,0.1
		c0.7,0.1,1,0.1,1.5,0.2c1.2,0.2,2.5,0.2,3.6,0.7c0.9,2.6,1,5.4,1.5,8.2l0.1,1.5c0.1,1.3,0.3,1.7,0.4,3.6c0.2,2.3,0,3.2,0.2,5.3
		c0,0.9-0.1,2.4-0.2,2.8L232.3,140.2z"/>
	<path class="st0" d="M217.9,45.7l0-0.6c-0.2-2.6,0.2-4.4,1-6.8c0.6-1.7,2.5-1.9,3.8-2.5c1.4-0.4,2.6-0.9,4.2-0.7
		c0.4-0.5,0.7-1.2,1.3-1.5c-0.5-0.9-1-2-1.6-2.9c-0.4-1-1-2.1-1.5-3.2c-0.9-1.7-2-4.2-2.9-6c-0.7-0.5-0.8-0.9-0.5-1.3
		c0.4-0.4,0.9-0.6,1.4-0.4c0.5,0.4,0.1,0.8,0.2,1.2c0.4,0.8,1,2.1,1.3,3c0.2,0.6,1,2.1,1.2,2.4c0.4,0.8,2,4.1,2.6,5.2
		c0.2,0.5,0.3,1,0.7,1.5c1.2-0.4,2.9-0.5,4.2,0c0.4-0.6,1.2-2.2,1.7-3.1c1.8-3.4,3.2-6.8,4.9-10.2l-0.1-0.4c0-0.3,0.5-0.7,0.9-0.7
		c0.3,0,1,0.4,0.9,1c-0.1,0.5-0.4,0.7-0.9,0.8c-1.1,2.2-2.2,4.1-3.1,6.3c-1.1,2.1-1.4,3.3-2.7,5.4c-0.2,0.4-0.4,0.9-0.7,1.5
		c0.5,0.4,1.1,0.8,1.4,1.4c1.5,0.1,2.6,0.4,3.9,0.9c1.4,0.6,1.8,2.1,2.2,3.5c0.3,2.4,0.4,5.1-0.1,7.5c-0.4,1.6-1.2,2.8-2.5,3.3
		c-0.3,0.8-0.7,1.5-1.4,1.9c-2.3,1.3-5.3,0.9-8.1,1c-2,0-3.9-0.4-5.8-0.7c-1.1-0.3-1.3-0.4-2.2-0.8c-0.7-0.3-1.2-0.6-1.8-1.1
		c-0.4-0.3-0.7-1.1-1.2-1.6L217.9,45.7z"/>
	<path class="st3" d="M234.4,34.9l0.2,0.2c-2-0.2-4.1-0.2-6.2-0.2c0.7-0.8,1.4-1,2.6-1.2C232.2,33.7,233.7,33.8,234.4,34.9"/>
	<path class="st3" d="M240,37.7c0.8,1.3,1,2.8,1,4.6c0.1,2,0.1,4.1-0.8,5.8c-3.1,2.9-8,2.6-12.1,2.4c-2.1-0.3-4-0.8-5.7-1.6
		c-1.6-1-1.3-2.4-1.5-4.1c0-1.5,0-2.1,0.2-3.7c0.2-1.5,0.4-2.7,1.4-3.7c0.6-0.5,1.4-0.8,2.3-0.9c3.9-0.4,8.3-0.7,12.6,0.1
		C238.3,36.6,239.2,37,240,37.7"/>
	<path class="st0" d="M235.2,37.5c1.4,0.8,1.3,2.6,1.3,3.6c0.1,1.5-0.1,3-0.3,4.5c-0.3,1.5-0.2,2.6-1.6,3.2
		c-0.6,0.3-1.6,0.4-2.3,0.5c-3.1,0.3-6.3-0.1-8.8-1.5c-1.4-1.5-0.8-2.6-0.9-4.4c0.1-2.1,0.1-4.3,1.8-5.6c1-0.6,2.6-0.8,4.9-0.9
		C231.5,37,234,37,235.2,37.5"/>
	<path class="st4" d="M234.9,38.3c1.1,1.1,0.8,3.5,0.7,5.3c-0.1,0.2,0,1.2-0.1,1.5c-0.1,0.7-0.3,0.9-0.3,1.6l-0.2,0.4
		c-0.1,0.2,0,0.1-0.3,0.5c-0.2,0.3-0.3,0.3-0.4,0.4c-0.3,0.1-0.7,0.2-1.1,0.3l-1.2,0.1c-2.9,0.2-3.8,0.3-6.4-0.8
		c-1.1-0.3-1.8-0.7-2-1.5c-0.1-0.9-0.1-1.6-0.1-2.4c0.2-2.3-0.1-4.6,2.2-5.3c0.5-0.2,0.9-0.2,1.4-0.3c2.3-0.5,4.8-0.5,7.1,0
		L234.9,38.3z"/>
	<path class="st0" d="M239.8,39.8c0,0.6-0.2,1-0.4,1.1c-0.3,0.4-1,0.2-1.4,0.1c-0.5-0.1-0.6-0.5-0.7-0.9c-0.2-0.5,0.2-0.9,0.4-1.2
		c0.2-0.2,1.1-0.4,1.5-0.1C239.7,39.2,239.6,39.3,239.8,39.8"/>
	<path class="st1" d="M239,40c0,0.3-0.1,0.5-0.4,0.4c-0.4,0-0.4-0.1-0.5-0.3c-0.1-0.4,0.2-0.8,0.5-0.7C238.8,39.5,239,39.6,239,40"
		/>
	<path class="st0" d="M239.6,42.9c0.3,0.4,0.4,0.8,0.4,1.3c-0.1,0.4-0.4,0.8-0.8,0.8c-0.8,0.1-1.4-0.1-1.7-0.8
		c-0.3-0.8,0.3-1.6,0.9-1.7C238.7,42.5,239.2,42.6,239.6,42.9"/>
	<path class="st1" d="M239.3,43.8c-0.1,0.2-0.2,0.5-0.4,0.6c-0.3,0.1-0.6-0.1-0.7-0.4c-0.1-0.3,0.1-0.6,0.4-0.7
		C238.9,43.2,239.2,43.5,239.3,43.8"/>
</g>
</svg>
