<?xml version="1.0" encoding="utf-8"?>
<!-- Generator: Adobe Illustrator 25.4.1, SVG Export Plug-In . SVG Version: 6.00 Build 0)  -->
<svg version="1.1" id="Layer_1" xmlns="http://www.w3.org/2000/svg" xmlns:xlink="http://www.w3.org/1999/xlink" x="0px" y="0px"
	 viewBox="0 0 400 200" style="enable-background:new 0 0 400 200;" xml:space="preserve">
<style type="text/css">
	.st0{fill-rule:evenodd;clip-rule:evenodd;fill:#010101;}
</style>
<g>
	<path class="st0" d="M179.8,78.1c0.6,0,1.2-0.1,1.7,0.1c0.7,0.2,1.5,0.2,2.3,0.3c1.3,0.1,2.7,0.2,4,0.2c61.4,0,122.1,0,183.6,0
		c1.6,0,3.3-0.1,4.9-0.5c0.2,0,0.5-0.1,0.7,0c0.3,0.3,0.2,0.8,0.3,1.2c0.2,1.7,0.6,2.8,0.9,4.4c0.1,0.3,0.1,0.7-0.2,1
		c-0.2,0.3-0.7,0.2-0.8-0.1c-0.8-2-1.3-2.5-2.9-2.9c-2.1-0.6-4.2-0.6-6.4-0.6c-11.7,0-23.5,0-35.2,0c-11.2,0-22.3,0-33.5,0
		c-12.1,0-24.2,0-36.3,0c-8.3,0-16.5,0-24.8,0c-13.5,0-27.1,0-40.6,0c0,5.8,0,11.6,0,17.4c0,5.2,0,10.3,0.1,15.5
		c0.1,1.5,0,3.1,0.3,4.6c0.1,0.7,0.5,1.6,1.3,1.8c1,0.3,2,0.3,3.1,0.4c0.4,0,0.6,0.5,0.3,0.8c-0.2,0.3-0.6,0.3-1,0.3
		c-1.7,0-3.5,0-5.2-0.1c-2.3-0.1-4.6,0.2-6.9,0.1c-0.3,0-0.6-0.1-0.7-0.5c-0.1-0.3,0.2-0.6,0.5-0.6c0.6,0,1.3-0.1,1.9-0.3
		c0.5-0.2,0.7-0.7,0.9-1.1c0.3-1.2,0.4-2.4,0.4-3.6c0.1-2.4,0.1-4.7,0.1-7.1c0-9.2,0-18.3,0-27.5c-2.7,0-4.6,0.1-7.3,0.1
		c-1.2,0-2.4,0.1-3.5,0.5c-0.5,0.2-1,0.6-1.4,1c-0.4,0.6-0.8,1.2-1,1.9c-0.1,0.3-0.4,0.6-0.8,0.5c-0.3-0.1-0.3-0.5-0.3-0.8
		c0.2-1.1,0.4-2.2,0.7-3.3C179.2,80,179.4,79,179.8,78.1L179.8,78.1z"/>
	<path class="st0" d="M41,79.8c3.1-0.2,6.1-0.1,9.2,0.4c1.5,0.2,3,0.6,4.6,0.8c0.6,0.1,1.2,0.1,1.8,0.2c0.3,0,0.7,0.1,0.8,0.5
		c0.1,0.3,0,0.7,0,1c-0.3,2.3-0.3,4.6-0.3,6.9c0,0.3,0,0.6-0.2,0.9c-0.2,0.3-0.7,0.3-0.8,0c-0.2-0.5-0.2-1-0.3-1.5
		c-0.2-1.3-0.7-2.6-1.7-3.5c-1.1-1.1-2.5-1.7-4-2.2c-2.9-1-6-1.2-9-1.1c-1.4,0.1-2.7,0.3-4,0.6c-2.1,0.6-4,1.7-5.7,3.1
		c-2.3,2-3.6,4.9-4.2,7.9c-0.7,3.3-0.7,6.8,0,10.1c0.7,2.9,1.9,5.7,3.6,8.1c0.9,1.3,2.1,2.4,3.4,3.3c1.7,1.3,3.6,2.3,5.6,2.9
		c2.2,0.7,4.6,1,6.9,0.8c1.4-0.1,2.9-0.3,4.2-0.8c0.4-0.2,0.8-0.4,1.1-0.8c0.3-0.4,0.3-0.9,0.3-1.4c0-3,0-6.1,0-9.1
		c0-1,0-1.9-0.2-2.9c-0.1-0.6-0.3-1.2-0.8-1.5c-0.9-0.6-2-0.7-3-0.7c-0.3,0-0.7-0.2-0.6-0.5c0-0.4,0.4-0.5,0.7-0.5
		c1.4,0,2.9,0,4.3,0.1c0.8,0,1.6,0.1,2.5,0c1.4-0.1,2.8-0.1,4.3-0.1c0.3,0,0.6,0,0.9,0.1c0.3,0.1,0.4,0.6,0.1,0.8
		c-0.3,0.2-0.6,0.1-0.9,0.2c-0.6,0.1-1.4,0.2-1.8,0.7c-0.5,0.5-0.6,1.3-0.7,2c-0.1,2.1-0.1,4.1-0.1,6.2c0,1.9,0,3.9,0,5.8
		c0,0.6,0,1.1-0.1,1.7c0,0.3-0.1,0.6-0.3,0.8c-0.3,0.2-0.6,0.4-0.9,0.5c-1.1,0.5-2.2,0.9-3.4,1.2c-4.4,1.2-9.1,1.2-13.6,0.3
		c-3.7-0.7-7.4-2.2-10.3-4.7c-1.6-1.3-2.9-3-3.9-4.8c-1.7-3-2.6-6.4-2.8-9.9c-0.1-3.5,0.5-7.1,1.9-10.3c1.2-2.7,2.9-5.1,5.1-6.9
		c2.9-2.4,6.4-3.8,10.1-4.3C39.5,79.9,40.3,79.9,41,79.8L41,79.8z"/>
	<path class="st0" d="M276.7,86.3c-1.1,0.1-2.2,0.2-3.3,0.5c-2.5,0.7-4.9,2.1-6.7,4c-1.9,2.1-3.2,4.6-3.8,7.3
		c-0.7,3-0.4,6.2,0.6,9.1c0.9,2.5,2.4,4.9,4.5,6.5c2,1.6,4.5,2.6,7,3c4.1,0.6,8.5-0.3,11.9-2.8c3.3-2.5,5.5-6.4,6-10.5
		c0.4-2.8,0.2-5.7-0.8-8.4c-0.6-1.7-1.6-3.2-2.9-4.5c-1.3-1.4-3-2.4-4.7-3.1C282,86.5,279.4,86.1,276.7,86.3L276.7,86.3z
		 M277.2,88.1v27l-0.2,0c-0.3,0-0.6-0.1-0.9-0.1l-0.2,0V88.2C276.4,88.1,276.8,88.1,277.2,88.1L277.2,88.1z M274.5,114.4
		c-2.9-1.1-5.1-3.2-6.4-6c-1.4-2.9-1.9-6.3-1.6-9.5c0.2-2.7,1.2-5.2,2.9-7.3c1.3-1.6,3.1-2.6,5.1-3.2l0.3-0.1v26.1L274.5,114.4
		L274.5,114.4z M281.2,88.6c1.5,0.5,2.8,1.3,3.9,2.4c1.7,1.7,3.1,4,3.6,6.3c0.6,2.5,0.7,5,0.4,7.5c-0.3,2.1-0.9,4.3-2.1,6.1
		c-1.4,2-3.4,3.3-5.8,3.9l-0.2,0.1V88.6L281.2,88.6L281.2,88.6z M279.5,115.1c-0.3,0-0.6,0-0.9,0l-0.2,0v-27c0.3,0,0.9,0.1,1.3,0.2
		v26.8L279.5,115.1L279.5,115.1z"/>
	<path class="st0" d="M297.3,87.6c0-0.3,0.2-0.6,0.6-0.6c0.4,0.1,0.7,0.4,1,0.6c2.7,2.7,5.5,5.3,8.2,8c3,2.9,6,5.8,9,8.7
		c2.1,2,4.1,4.1,6.2,6.1c-0.1-5.7-0.3-11.4-0.4-17.2c-0.1-1.1,0-2.3-0.2-3.4c-0.1-0.5-0.4-1-0.9-1.1c-0.8-0.3-1.6-0.2-2.5-0.3
		c-0.3,0-0.5-0.4-0.3-0.6c0.3-0.2,0.6-0.2,1-0.2c1.4,0,2.7,0.1,4.1,0.1c1.4,0,2.9-0.2,4.3,0c0.5,0.1,0.4,0.7,0,0.8
		c-0.6,0.1-1.3,0.1-1.9,0.4c-0.5,0.3-0.6,0.8-0.6,1.3c-0.1,1.2,0,2.5-0.1,3.8c0,5.1,0,10.3,0,15.4c0,2,0,3.9,0,5.9
		c0,0.4,0,0.8-0.3,1.1c-0.3,0.2-0.6,0-0.9-0.1c-0.6-0.5-1.2-1-1.8-1.5c-3-2.7-6-5.5-9-8.2c-4.5-4.2-8.9-8.5-13.2-12.9
		c0.2,5.3,0.3,10.7,0.5,16c0,1.1,0,2.3,0.2,3.4c0.1,0.7,0.3,1.7,1.2,2c0.8,0.2,1.6,0.2,2.3,0.3c0.4,0.1,0.4,0.5,0.1,0.7
		c-0.4,0.2-0.9,0.1-1.4,0.1c-1.6,0-3.3-0.2-4.9-0.1c-1,0-1.9,0.1-2.9,0.1c-0.3,0-0.6,0-0.7-0.2c-0.2-0.2-0.1-0.7,0.3-0.7
		c0.7-0.1,1.4,0,2.1-0.4c0.4-0.3,0.5-0.7,0.6-1.1c0.2-0.9,0.2-1.7,0.2-2.6c0-7.1,0-14.2,0-21.3C297.2,89,297.2,88.3,297.3,87.6
		L297.3,87.6z"/>
	<path class="st0" d="M360.6,86.5c2-0.2,4.1-0.1,6.1,0.3c0.5,0.1,1,0.1,1.5,0.2c0.3,0.1,0.3,0.4,0.3,0.6c-0.1,1.4-0.2,2.7-0.2,4.1
		c0,0.3-0.1,0.7-0.5,0.8c-0.3,0-0.5-0.2-0.6-0.5c-0.1-0.7-0.2-1.3-0.5-1.9c-0.4-0.8-1.3-1.3-2.2-1.6c-1.2-0.4-2.4-0.5-3.6-0.4
		c-1.2,0.1-2.5,0.5-3.3,1.3c-1.6,1.5-1.6,4-0.3,5.6c1.1,1.3,2.5,2.3,3.9,3.4c1.8,1.3,3.7,2.6,5.3,4.2c1.2,1.2,2.2,2.7,2.5,4.4
		c0.5,2.2-0.1,4.6-1.6,6.4c-1.3,1.7-3.5,2.8-5.7,3.2c-2.5,0.4-5.1,0.3-7.5-0.3c-0.5-0.2-1.1-0.4-1.6-0.6c-0.4-0.2-0.4-0.6-0.4-1
		c0-1.3,0.1-2.7,0.2-4c0-0.4,0-0.8,0.3-1.1c0.2-0.3,0.8-0.1,0.8,0.2c0,0.4,0,0.7,0.1,1.1c0.1,1,0.5,1.9,1.3,2.6
		c0.8,0.8,2.1,1.3,3.3,1.5c1.9,0.3,4,0.1,5.6-0.9c1-0.7,1.8-1.7,2-2.9c0.4-1.7-0.1-3.5-1.4-4.9c-2.7-2.9-6.7-4.7-9.2-7.8
		c-1.3-1.5-1.9-3.3-1.8-5.1c0-1.8,0.8-3.5,2.2-4.8C356.8,87.4,358.7,86.7,360.6,86.5L360.6,86.5z"/>
	<path class="st0" d="M346.5,87.2c0.3,0,0.6-0.2,0.9-0.2c0.4,0.2,0.2,0.7,0.2,1c-0.4,1.2-0.3,2.5-0.5,3.7c-0.1,0.2-0.2,0.6-0.5,0.6
		c-0.3,0-0.6-0.2-0.6-0.5c-0.1-0.7-0.1-1.5-0.7-2c-0.7-0.4-1.6-0.5-2.4-0.6c-2-0.1-3.9-0.1-5.9-0.1c-0.1,2.7,0,5.3,0,8
		c0,0.9,0,1.9,0,2.8c2.3,0,4.6,0,6.8-0.1c0.7-0.1,1.5,0,2-0.5c0.2-0.2,0.4-0.4,0.7-0.5c0.2,0,0.4,0.2,0.4,0.4c0,0.2,0,0.5-0.1,0.7
		c-0.3,1.4-0.3,2.9-0.4,4.3c0,0.3-0.3,0.6-0.6,0.5c-0.5-0.1-0.3-0.6-0.4-0.9c0-0.5-0.2-1-0.6-1.4c-0.5-0.4-1.3-0.5-1.9-0.6
		c-2-0.1-4-0.1-5.9-0.2c0,2.9,0,5.9,0,8.8c0.1,1-0.1,2.2,0.5,3.1c0.6,0.7,1.7,0.7,2.6,0.8c1.6,0,3.2,0.1,4.7-0.1
		c0.7-0.1,1.5-0.4,2-0.9c0.4-0.5,0.6-1.1,0.7-1.7c0.1-0.2,0.1-0.5,0.3-0.7c0.1-0.2,0.5-0.2,0.7,0c0.2,0.2,0.1,0.5,0.1,0.8
		c-0.1,1-0.3,2-0.4,3c-0.1,0.4-0.2,0.9-0.5,1.2c-0.3,0.3-0.9,0.4-1.4,0.4c-3.4,0-6.8,0-10.2-0.2c-1.7-0.1-3.4,0.1-5.1,0.1
		c-0.4,0-0.8,0.1-1.1-0.2c-0.3-0.2-0.1-0.6,0.2-0.7c0.6-0.1,1.2-0.1,1.7-0.3c0.4-0.2,0.5-0.6,0.6-0.9c0.3-1,0.3-2.1,0.3-3.2
		c0.1-2.8,0-5.5,0-8.3c0-3.2,0-6.5,0-9.7c0-1,0-2-0.1-3c-0.1-0.5-0.2-1-0.7-1.3c-0.7-0.4-1.6-0.4-2.4-0.4c-0.3,0-0.5-0.3-0.4-0.5
		c0.1-0.3,0.5-0.3,0.8-0.3c1.7,0,3.3,0.1,5,0.1c3.2,0,6.3,0,9.5,0C345.1,87.4,345.8,87.3,346.5,87.2L346.5,87.2z"/>
	<path class="st0" d="M145.7,87c0.2-0.1,0.6-0.2,0.7,0c0.2,0.4,0,0.8-0.1,1.2c-0.3,1.1-0.2,2.3-0.4,3.4c0,0.3-0.2,0.7-0.5,0.7
		c-0.4,0-0.5-0.4-0.5-0.7c0-0.7-0.1-1.5-0.8-1.9c-0.7-0.4-1.6-0.5-2.5-0.6c-1.8-0.1-3.6-0.1-5.4-0.1c0,3.6,0,7.2,0,10.9
		c1.9,0,3.8,0,5.8,0c0.7,0,1.5,0,2.2-0.3c0.5-0.2,0.7-0.8,1.2-0.8c0.4,0.2,0.3,0.7,0.2,1c-0.3,1.5-0.3,3-0.5,4.5
		c0,0.4-0.7,0.6-0.8,0.2c-0.2-0.5,0-1.1-0.3-1.6c-0.2-0.6-0.8-0.9-1.4-1c-0.9-0.2-1.8-0.2-2.6-0.2c-1.3,0-2.6-0.1-3.9-0.1
		c0,3,0,5.9,0,8.9c0,0.9-0.1,1.9,0.4,2.8c0.3,0.6,1,0.9,1.6,1c1.4,0.2,2.8,0.2,4.1,0.1c1-0.1,2.1-0.1,2.9-0.7c0.6-0.4,0.8-1,1-1.7
		c0.1-0.4,0.1-0.8,0.3-1.1c0.1-0.2,0.6-0.3,0.7-0.1c0.2,0.3,0.1,0.6,0.1,1c-0.1,1-0.3,2-0.4,3.1c-0.1,0.4-0.2,0.8-0.5,1.1
		c-0.4,0.3-0.9,0.3-1.4,0.3c-3,0-6,0-9-0.2c-1.9-0.1-3.9,0.1-5.8,0c-0.3,0-0.7-0.1-0.7-0.4c0-0.2,0.1-0.4,0.4-0.4
		c0.6-0.1,1.3,0,1.8-0.4c0.5-0.6,0.5-1.3,0.6-2c0.2-2.2,0.2-4.5,0.2-6.7c0-4.6,0-9.3,0-13.9c0-0.9,0-1.8-0.1-2.7
		c-0.1-0.5-0.3-1-0.8-1.2c-0.7-0.3-1.5-0.3-2.2-0.4c-0.3,0-0.5-0.4-0.3-0.7c0.2-0.2,0.5-0.2,0.8-0.2c1.5,0,3,0.1,4.6,0.1
		c3,0,5.9,0,8.9,0C144.2,87.2,145,87.2,145.7,87L145.7,87z"/>
	<path class="st0" d="M203.3,87.4c0-0.3,0.4-0.4,0.7-0.4c1.5,0,3.1,0.1,4.6,0.1c1.2,0,2.5-0.1,3.7-0.1c0.2,0,0.5,0,0.7,0.2
		c0.2,0.2,0.2,0.6-0.1,0.7c-0.6,0.2-1.4,0-1.9,0.5c-0.5,0.6-0.5,1.4-0.5,2.1c-0.1,2.9,0,5.7-0.1,8.6c5.5,0,11,0,16.6,0
		c0-2.8,0-5.6,0-8.4c-0.1-0.8,0-1.7-0.6-2.3c-0.6-0.5-1.5-0.5-2.3-0.5c-0.3,0-0.5-0.2-0.5-0.5c0-0.3,0.4-0.4,0.7-0.4
		c1.5,0,2.9,0.1,4.4,0.1c1.3,0,2.6-0.1,3.9-0.1c0.3,0,0.6,0,0.8,0.2c0.2,0.2,0,0.6-0.2,0.6c-0.6,0.1-1.3,0-1.8,0.5
		c-0.5,0.5-0.5,1.2-0.6,1.8c-0.1,2.6-0.1,5.2-0.1,7.8c0,3,0,6.1,0,9.1c0,2.1,0,4.2,0.2,6.3c0.1,0.6,0.2,1.4,0.8,1.6
		c0.8,0.3,1.7,0.2,2.5,0.4c0.2,0.1,0.2,0.5,0,0.6c-0.2,0.2-0.5,0.2-0.8,0.2c-1.2,0-2.4,0-3.5-0.1c-1.7-0.1-3.3,0.1-5,0.1
		c-0.2,0-0.5,0-0.7-0.2c-0.2-0.2,0-0.6,0.2-0.6c0.5-0.1,1-0.1,1.5-0.3c0.4-0.2,0.5-0.6,0.6-1c0.3-1.1,0.3-2.2,0.3-3.3
		c0.1-3.3,0-6.6,0-10c-5.5,0-11,0-16.6,0c0,3.1,0,6.3,0,9.4c0,1.2,0.1,2.3,0.2,3.5c0.1,0.5,0.3,1.1,0.9,1.3c0.7,0.2,1.5,0.2,2.3,0.3
		c0.4,0.1,0.4,0.6,0.1,0.8c-0.5,0.2-1,0.1-1.5,0.1c-1.7,0-3.5-0.2-5.2-0.1c-0.9,0-1.8,0.1-2.7,0c-0.3,0-0.6-0.3-0.5-0.6
		c0.1-0.3,0.5-0.2,0.8-0.3c0.5-0.1,1.2-0.1,1.4-0.6c0.3-0.8,0.4-1.6,0.4-2.4c0.2-2.9,0.1-5.9,0.1-8.8c0-3,0-6.1,0-9.1
		c0-1.5,0-3-0.1-4.5c-0.1-0.5-0.1-1.2-0.6-1.5c-0.6-0.4-1.4-0.4-2.2-0.5C203.5,87.9,203.3,87.7,203.3,87.4L203.3,87.4z"/>
	<path class="st0" d="M235.7,87.3c0.2-0.3,0.5-0.3,0.8-0.3c1.5,0,3,0.1,4.5,0.1c2.7,0,5.4-0.3,8.1,0.1c1.7,0.2,3.3,0.7,4.7,1.7
		c1.5,1.2,2.5,2.9,2.7,4.8c0.1,1.8-0.4,3.7-1.4,5.3c-0.9,1.5-2.1,2.8-3.5,4c2.5,2.9,4.9,5.9,7.5,8.7c1.1,1.2,2.3,2.3,3.8,3
		c1.1,0.5,2.4,0.7,3.6,0.7c0.4,0,0.7,0.4,0.4,0.7c-0.4,0.3-1,0.2-1.5,0.2c-1.9,0-3.8,0.1-5.7-0.3c-1.9-0.5-3.3-1.9-4.4-3.2
		c-2.3-2.7-4.4-5.4-6.6-8.2c-0.2-0.2-0.4-0.5-0.7-0.5c-1.7,0-3.4-0.1-5.1-0.1c0,2.4,0,4.7,0.1,7.1c0,0.9,0.1,1.9,0.3,2.8
		c0.1,0.5,0.4,1,0.9,1.2c0.8,0.2,1.7,0.2,2.5,0.3c0.3,0.1,0.4,0.6,0.1,0.7c-0.4,0.2-0.8,0.1-1.2,0.1c-1.5,0-2.9-0.1-4.4-0.1
		c-1.3,0-2.6,0.1-4,0.1c-0.2,0-0.4,0-0.6-0.1c-0.3-0.2-0.2-0.6,0.1-0.7c0.6-0.1,1.3,0,1.8-0.4c0.5-0.4,0.5-1,0.6-1.6
		c0.2-1.8,0.2-3.7,0.2-5.6c0-4.7,0-9.4,0-14.1c0-1.3,0-2.7-0.1-4c0-0.5-0.2-1.1-0.7-1.4c-0.7-0.4-1.6-0.4-2.4-0.5
		C235.8,87.9,235.6,87.5,235.7,87.3L235.7,87.3z M243.5,88.7c-0.3,0-0.6,0.1-0.6,0.4c0,4.1,0,8.1,0,12.2c0,0.2,0,0.5,0.2,0.6
		c0.8,0.4,1.8,0.4,2.7,0.5c1.4,0.1,2.8,0.2,4.1-0.4c1.3-0.7,2.1-2.1,2.4-3.4c0.5-1.8,0.4-3.8-0.1-5.6c-0.5-1.6-1.7-3.1-3.3-3.8
		C247.2,88.4,245.3,88.5,243.5,88.7L243.5,88.7z"/>
	<path class="st0" d="M73.6,86.9c0.2-0.3,0.6-0.3,0.8,0c0.3,0.4,0.5,0.9,0.7,1.4c2.4,6.2,4.7,12.4,7.1,18.6c0.7,1.8,1.4,3.7,2.2,5.4
		c0.5,0.9,1,1.9,1.9,2.5c0.6,0.3,1.2,0.5,1.9,0.5c0.2,0,0.4,0,0.6,0.2c0.2,0.2,0.1,0.5-0.1,0.6c-0.3,0.2-0.7,0.1-1,0.2
		c-2,0-3.9,0-5.9-0.1c-0.3,0-0.7,0-0.9-0.3c-0.1-0.3,0.1-0.5,0.3-0.6c0.3-0.2,0.2-0.6,0.1-0.9c-1.2-3.1-2.3-6.2-3.5-9.3
		c-2.7,0-5.4,0-8.1,0c-0.2,0-0.3,0.2-0.3,0.3c-0.7,2.2-1.5,4.4-2.2,6.6c-0.3,0.8-0.5,1.7-0.5,2.5c0.1,0.6,0.7,0.8,1.2,0.8
		c0.3,0,0.7-0.1,0.9,0.3c0.1,0.4-0.3,0.6-0.6,0.6c-1.1,0-2.1-0.1-3.2-0.1c-1.4,0-2.7,0.1-4.1,0.1c-0.3,0-0.7,0-0.9-0.3
		c-0.2-0.3,0.1-0.6,0.4-0.6c0.8-0.1,1.8-0.1,2.5-0.6c0.9-0.8,1.3-2,1.8-3.1c2.8-7.7,5.6-15.4,8.3-23.1
		C73.2,87.9,73.3,87.4,73.6,86.9L73.6,86.9z M72.1,96.7c-0.7,2.2-1.4,4.4-2.1,6.6c2.4,0,4.7,0,7.1,0c-1.2-3.5-2.4-7-3.7-10.5
		C72.9,94.1,72.6,95.4,72.1,96.7L72.1,96.7z"/>
	<path class="st0" d="M95.6,87.9c0.1-0.4,0.1-0.9,0.6-1c0.4-0.1,0.7,0.4,0.8,0.7c3.9,7.8,7.8,15.6,11.7,23.4
		c3.8-7.9,7.5-15.7,11.3-23.6c0.1-0.4,0.6-0.7,1-0.4c0.3,0.3,0.3,0.8,0.3,1.2c0.8,7.2,1.6,14.4,2.4,21.5c0.2,1.2,0.2,2.5,0.6,3.6
		c0.2,0.7,0.7,1.4,1.4,1.7c0.9,0.3,1.8,0.4,2.8,0.4c0.3,0,0.5,0.4,0.3,0.6c-0.3,0.3-0.8,0.3-1.2,0.3c-2.1-0.1-4.3-0.1-6.4-0.2
		c-0.4-0.1-0.9,0-1-0.4c-0.1-0.3,0.2-0.5,0.4-0.6c0.1-0.5,0-1.1,0-1.6c-0.6-6.2-1.2-12.4-1.8-18.6c-3.3,6.8-6.6,13.6-9.9,20.4
		c-0.2,0.3-0.4,0.9-0.9,0.9c-0.4,0-0.6-0.5-0.8-0.8c-1.5-2.7-2.9-5.5-4.3-8.2c-1.6-3.1-3-6.3-4.5-9.4c-0.4-0.9-0.8-1.7-1.2-2.6
		c-0.4,4.8-0.8,9.6-1.3,14.4c-0.1,1.6-0.3,3.1-0.3,4.7c0,0.4,0.3,0.8,0.6,0.9c0.6,0.2,1.2,0.2,1.8,0.3c0.3,0,0.4,0.4,0.3,0.6
		c-0.2,0.2-0.5,0.3-0.7,0.3c-1.6,0-3.2-0.2-4.8-0.1c-0.8,0-1.5,0.1-2.3,0.1c-0.3,0-0.7-0.1-0.7-0.4c-0.1-0.2,0.2-0.4,0.4-0.4
		c0.6-0.1,1.4,0,1.9-0.4c0.5-0.5,0.6-1.3,0.7-2C93.7,104.7,94.6,96.3,95.6,87.9L95.6,87.9z"/>
	<path class="st0" d="M181.7,93.4c0.1,0,0.3-0.1,0.4,0c0.3,0.2,0.1,0.6,0,0.9c-0.2,0.7-0.1,1.4-0.2,2.1c0,0.3-0.4,0.4-0.6,0.2
		c-0.2-0.4-0.1-0.9-0.4-1.3c-0.4-0.4-1-0.4-1.5-0.4c-1.1,0-2.8,0-3.9-0.1c0,2.3,0,4.9,0,7.2c1.4,0,2.6,0,4,0c0.3,0,0.6,0,0.9-0.1
		c0.3-0.1,0.4-0.4,0.7-0.5c0.3-0.1,0.5,0.3,0.4,0.6c-0.2,0.9-0.2,1.9-0.3,2.8c0,0.3-0.4,0.4-0.6,0.2c-0.2-0.4-0.1-0.9-0.4-1.3
		c-0.3-0.4-0.9-0.4-1.4-0.4c-1.2,0-2.1,0-3.3,0c0,2.4,0,4.4,0.1,6.7c0,0.5,0,1.1,0.2,1.6c0.2,0.4,0.8,0.4,1.2,0.4
		c0.3,0,0.6,0,0.8,0.2c0.1,0.2-0.1,0.4-0.3,0.5c-1.3,0.1-2.7-0.1-4,0c-0.5,0-1,0.1-1.5,0c-0.3,0-0.5-0.4-0.2-0.6
		c0.4-0.2,0.9,0,1.2-0.4c0.3-0.5,0.3-1.2,0.3-1.8c0.1-2.6,0-5.2,0.1-7.9c0-2.1,0-4.3,0-6.4c0-0.4,0-0.8-0.4-1.1
		c-0.4-0.3-1-0.2-1.4-0.3c-0.3-0.1-0.2-0.5,0.1-0.6c0.4-0.1,0.8,0,1.2,0c2.2,0.1,5,0,7.2,0C180.4,93.5,181.1,93.6,181.7,93.4
		L181.7,93.4z"/>
	<path class="st0" d="M160.8,93.8c2.3-0.2,4.8,0.2,6.8,1.6c1.4,0.9,2.4,2.3,3,3.9c0.7,1.9,0.8,3.9,0.5,5.9c-0.4,2.2-1.5,4.2-3.1,5.6
		c-1.6,1.4-3.7,2.2-5.7,2.2c-2,0.1-4.2-0.4-5.8-1.7c-1.6-1.2-2.7-3-3.3-4.9c-0.7-2.5-0.5-5.4,0.8-7.7c0.7-1.5,1.9-2.8,3.2-3.6
		C158.2,94.4,159.5,94,160.8,93.8L160.8,93.8z M162.5,95.3v16.1c0.4,0,0.7-0.1,1.1-0.1V95.5C163.2,95.4,162.8,95.4,162.5,95.3
		L162.5,95.3z M161.5,111.4V95.3c-0.4,0-0.7,0-1.1,0.1v15.8C160.8,111.3,161.1,111.3,161.5,111.4L161.5,111.4z M159.4,110.9V95.7
		c-2.2,0.8-3.7,2.7-4,5.3c-0.2,1.8-0.1,3.7,0.4,5.5c0.5,1.6,1.4,3.2,2.8,4C158.9,110.6,159.1,110.7,159.4,110.9L159.4,110.9z
		 M164.5,95.9V111c0.9-0.3,1.7-0.7,2.3-1.3c1.2-1.4,1.7-3.4,1.8-5.3c0.1-2.3-0.3-4.8-1.7-6.7C166.4,97,165.6,96.3,164.5,95.9
		L164.5,95.9z"/>
</g>
</svg>
