<?xml version="1.0" standalone="no"?>
<!DOCTYPE svg PUBLIC "-//W3C//DTD SVG 20010904//EN"
 "http://www.w3.org/TR/2001/REC-SVG-20010904/DTD/svg10.dtd">
<svg version="1.0" xmlns="http://www.w3.org/2000/svg"
 width="700.000000pt" height="700.000000pt" viewBox="0 0 700.000000 700.000000"
 preserveAspectRatio="xMidYMid meet">
<metadata>
Created by potrace 1.14, written by Peter Selinger 2001-2017
</metadata>
<g transform="translate(0.000000,700.000000) scale(0.100000,-0.100000)"
fill="#000000" stroke="none">
<path d="M3298 6705 c-2 -2 -36 -6 -77 -9 -125 -10 -210 -22 -361 -51 -82 -15
-282 -70 -383 -104 -461 -157 -857 -399 -1209 -739 -372 -361 -637 -778 -804
-1267 -87 -253 -133 -470 -163 -775 -8 -84 -7 -497 2 -555 3 -16 8 -57 11 -90
4 -33 16 -112 27 -175 172 -987 814 -1850 1714 -2304 205 -103 330 -151 595
-231 67 -20 268 -63 325 -70 28 -3 59 -8 71 -10 124 -27 537 -41 699 -24 245
25 323 37 500 79 789 187 1474 667 1931 1351 46 70 84 130 84 134 0 4 8 19 19
33 23 34 106 194 147 287 123 273 213 584 250 860 1 11 5 40 8 65 4 25 9 63
12 85 9 71 12 478 4 550 -4 39 -11 99 -14 135 -52 514 -277 1082 -607 1527
-110 149 -159 204 -334 378 -412 410 -919 695 -1480 830 -143 35 -290 61 -393
71 -31 3 -68 8 -82 10 -28 6 -487 14 -492 9z m394 -149 c113 -6 205 -17 353
-42 196 -32 505 -128 704 -217 1035 -466 1731 -1464 1806 -2592 11 -158 5
-455 -10 -535 -3 -14 -7 -45 -10 -70 -9 -75 -16 -124 -20 -140 -2 -8 -7 -31
-10 -50 -3 -19 -11 -55 -16 -80 -6 -25 -12 -52 -14 -62 -13 -63 -85 -285 -127
-393 -83 -210 -242 -504 -360 -661 l-23 -32 -67 77 c-37 42 -75 85 -85 96 -28
31 -181 202 -253 284 -36 40 -74 83 -85 95 -11 12 -49 55 -85 96 -36 40 -70
78 -75 84 -6 6 -82 92 -170 191 -342 385 -320 365 -380 371 -27 3 -59 7 -70 9
-11 2 -34 4 -51 4 -29 1 -36 8 -94 114 -35 61 -71 126 -80 142 -45 79 -236
415 -258 455 -14 25 -71 126 -127 225 -101 178 -130 230 -181 323 -15 26 -30
52 -34 57 -4 6 -21 35 -37 65 -117 217 -145 249 -198 230 -11 -4 -56 -50 -100
-101 -44 -52 -82 -96 -85 -99 -3 -3 -30 -34 -60 -70 -30 -36 -60 -69 -66 -75
-6 -5 -69 -77 -140 -160 -252 -295 -368 -430 -374 -435 -3 -3 -73 -84 -155
-180 -82 -96 -166 -193 -187 -215 -20 -22 -49 -53 -64 -70 -15 -16 -89 -95
-164 -175 -76 -80 -152 -161 -170 -180 -18 -19 -88 -93 -155 -165 -67 -71
-165 -184 -217 -250 -196 -250 -288 -367 -452 -577 -135 -174 -171 -214 -181
-204 -24 23 -162 231 -218 326 -48 82 -105 197 -172 345 -52 114 -152 437
-170 545 -3 19 -8 42 -10 50 -11 37 -31 174 -40 265 -3 33 -8 80 -10 105 -6
55 -6 371 -1 420 2 19 7 71 11 115 4 44 9 89 10 100 2 11 11 65 20 120 21 124
56 268 101 407 309 957 1079 1708 2044 1994 115 34 113 34 260 64 108 22 116
23 210 35 30 4 66 9 80 11 14 2 77 7 140 10 63 4 116 7 117 8 3 2 148 -2 255
-8z m343 -2841 c473 -839 481 -853 502 -859 10 -3 50 -8 88 -12 39 -3 81 -8
94 -9 27 -3 65 -41 261 -264 36 -41 70 -79 75 -85 6 -6 64 -72 129 -146 66
-74 124 -140 130 -145 6 -6 42 -46 81 -90 38 -44 72 -82 75 -85 3 -3 36 -41
75 -85 38 -44 77 -87 85 -95 8 -8 46 -50 83 -92 l69 -78 -401 0 -400 0 -188
281 c-103 155 -198 292 -210 305 -43 47 -123 19 -123 -43 0 -19 53 -108 170
-283 l170 -255 -237 -3 -236 -2 -160 60 c-88 33 -172 60 -188 60 -52 0 -91
-74 -57 -108 10 -10 -38 -12 -222 -10 l-235 3 0 163 0 164 98 176 c201 361
193 341 157 379 -25 28 -45 31 -245 39 -93 3 -192 8 -220 9 -27 1 -101 4 -162
6 -62 2 -113 8 -113 12 0 5 23 63 51 130 29 67 65 154 81 192 16 39 33 79 38
90 111 241 141 338 184 600 2 17 16 93 30 170 14 77 33 183 42 235 10 60 24
106 37 125 47 66 201 235 207 228 4 -4 178 -309 385 -678z m-799 196 c-3 -4
-7 -24 -10 -44 -2 -20 -9 -60 -15 -89 -6 -29 -13 -66 -16 -83 -2 -16 -15 -88
-27 -159 l-23 -129 -50 -52 c-27 -29 -152 -157 -276 -286 -389 -403 -454 -471
-461 -484 -7 -11 -58 -196 -172 -615 -19 -69 -37 -136 -40 -149 -6 -29 21 -80
44 -82 46 -5 67 3 94 33 16 18 59 65 95 104 141 152 226 247 229 255 2 5 53
38 113 75 61 37 116 76 124 87 8 11 26 56 42 99 l28 80 160 -6 c170 -7 394
-17 435 -20 14 -1 24 -7 23 -13 -1 -6 -50 -97 -108 -202 l-106 -191 1 -232 c1
-249 5 -271 52 -280 13 -2 573 -4 1244 -4 l1222 1 -29 -35 c-15 -19 -67 -76
-116 -126 -580 -596 -1370 -928 -2198 -925 -173 1 -263 7 -440 32 -361 49
-762 189 -1085 377 -289 169 -517 353 -748 607 -56 61 -62 70 -45 78 10 5 63
67 118 139 55 71 107 138 115 148 8 9 26 32 40 50 124 163 464 591 506 635 25
28 102 109 169 180 67 72 137 146 155 165 18 19 90 96 160 170 112 119 189
206 394 445 28 32 58 66 66 75 8 8 53 60 100 115 46 55 89 105 95 111 29 31
111 129 118 140 4 8 13 14 18 14 6 0 8 -4 5 -9z m-249 -888 c-22 -36 -229
-546 -248 -609 -8 -26 -27 -42 -103 -87 -71 -43 -113 -78 -176 -146 -46 -50
-85 -89 -86 -88 -2 1 6 34 17 72 11 39 21 79 24 90 2 11 18 72 36 136 l32 117
91 95 c237 248 411 427 414 427 2 0 1 -3 -1 -7z"/>
<path d="M3475 6340 c-34 -13 -44 -34 -46 -88 l-2 -51 -44 24 c-37 19 -50 22
-74 13 -33 -11 -49 -35 -49 -70 1 -31 15 -48 77 -87 l52 -34 -42 -44 c-49 -53
-60 -75 -48 -106 14 -37 43 -53 88 -48 6 0 35 24 62 53 l51 52 50 -52 c41 -43
56 -52 83 -52 50 0 85 48 67 93 -5 12 -25 39 -45 61 -19 21 -35 41 -35 45 0 3
21 19 48 36 58 36 71 52 72 88 0 64 -72 90 -132 47 -32 -23 -36 -19 -36 39 -1
63 -47 102 -97 81z"/>
<path d="M2663 6219 c-12 -4 -28 -20 -36 -35 -12 -23 -12 -35 -2 -76 14 -52
13 -53 -34 -37 -77 27 -136 -54 -83 -114 9 -10 42 -25 75 -34 65 -18 64 -14
26 -101 -22 -50 -22 -54 -7 -80 21 -33 62 -48 94 -33 14 6 36 36 56 75 l31 64
58 -34 c66 -39 96 -42 127 -14 44 42 25 96 -48 137 -28 15 -50 32 -50 36 0 5
18 29 40 54 61 70 52 130 -23 148 -23 6 -33 1 -66 -32 l-40 -39 -18 50 c-20
55 -59 81 -100 65z"/>
<path d="M4278 6216 c-14 -7 -30 -32 -41 -63 l-19 -51 -32 36 c-38 41 -83 47
-116 17 -33 -30 -26 -75 20 -128 22 -25 40 -49 40 -54 0 -5 -17 -17 -37 -28
-67 -36 -83 -54 -83 -90 0 -39 31 -75 66 -75 12 0 49 15 82 34 l61 34 30 -64
c31 -67 58 -87 103 -79 27 5 58 40 58 64 0 9 -11 40 -25 69 -14 30 -25 57 -25
61 0 4 28 15 62 25 70 20 87 36 88 87 0 30 -5 39 -33 54 -27 14 -39 15 -72 6
-21 -6 -40 -9 -42 -7 -2 2 2 16 8 32 33 84 -23 155 -93 120z"/>
<path d="M2097 5862 c-9 -10 -22 -33 -30 -51 l-14 -33 -23 33 c-31 46 -49 59
-80 59 -67 0 -92 -75 -45 -135 l24 -33 -22 -6 c-12 -3 -34 -6 -49 -6 -35 0
-68 -41 -62 -78 8 -46 38 -62 116 -62 l69 0 -7 -47 c-17 -101 6 -147 69 -141
40 4 65 41 73 108 3 30 8 57 10 59 2 3 27 -1 55 -7 74 -17 105 -15 129 10 48
51 13 109 -77 129 -32 7 -59 13 -61 15 -2 1 8 29 22 63 32 75 32 86 1 116 -29
30 -75 33 -98 7z"/>
<path d="M4813 5865 c-34 -24 -36 -58 -8 -127 14 -34 25 -62 25 -64 0 -1 -17
-5 -37 -8 -70 -13 -100 -26 -112 -52 -17 -37 -14 -61 11 -84 25 -23 59 -25
124 -9 26 7 49 8 54 3 5 -5 11 -34 15 -64 8 -65 35 -100 77 -100 38 0 78 40
73 72 -2 12 -6 44 -10 71 l-6 47 69 0 c52 0 75 5 91 18 53 44 21 121 -54 127
-22 1 -43 3 -47 4 -4 1 4 17 17 37 30 44 32 87 5 114 -23 23 -68 26 -92 8 -8
-7 -25 -28 -38 -46 l-22 -34 -18 40 c-27 60 -73 78 -117 47z"/>
<path d="M1502 5379 c-24 -9 -39 -34 -47 -80 -3 -18 -8 -35 -9 -37 -2 -1 -17
8 -33 22 -61 51 -129 35 -138 -33 -4 -34 16 -64 59 -88 24 -13 14 -30 -25 -38
-43 -10 -71 -57 -57 -97 15 -43 48 -55 106 -39 95 27 88 30 101 -40 6 -34 18
-70 27 -80 24 -26 78 -25 104 3 22 24 23 37 11 113 -10 58 -5 65 55 65 76 0
113 23 119 75 3 22 -26 63 -47 68 -13 4 -49 4 -80 2 l-58 -5 6 70 c5 54 3 75
-9 94 -18 26 -53 37 -85 25z"/>
<path d="M5437 5374 c-33 -18 -41 -46 -33 -124 l6 -60 -63 5 c-40 4 -70 1 -86
-7 -33 -17 -44 -63 -26 -99 15 -28 34 -34 135 -41 39 -3 38 0 25 -99 -6 -51
-5 -58 16 -78 33 -30 82 -28 108 5 12 15 21 37 21 49 0 12 3 37 6 55 7 35 4
34 91 10 23 -7 54 -9 68 -6 28 7 53 50 47 84 -4 25 -55 62 -84 62 -27 0 -22
15 17 47 56 45 57 101 4 129 -35 18 -62 12 -103 -23 -22 -18 -31 -21 -37 -12
-4 7 -6 16 -3 21 3 4 -2 22 -10 41 -18 44 -60 61 -99 41z"/>
<path d="M1041 4713 c-24 -20 -32 -63 -20 -105 9 -33 11 -32 -34 -13 -74 31
-127 6 -127 -59 0 -38 15 -54 72 -76 l39 -16 -41 -32 c-50 -41 -56 -88 -14
-121 37 -29 51 -27 120 18 l59 39 25 -54 c39 -84 82 -104 134 -63 32 25 33 44
1 119 -29 69 -30 80 -10 80 8 0 39 11 69 24 45 20 55 29 61 56 5 24 2 39 -12
59 -26 34 -60 37 -127 12 -61 -23 -60 -24 -72 55 -12 81 -72 118 -123 77z"/>
<path d="M5866 4707 c-14 -14 -26 -43 -31 -73 -5 -27 -9 -52 -11 -56 -1 -5 -2
-10 -3 -13 0 -3 -25 4 -53 15 -88 33 -129 23 -144 -36 -11 -43 13 -69 86 -99
l67 -27 -28 -59 c-16 -33 -29 -68 -29 -80 0 -27 44 -69 73 -69 34 0 53 18 85
82 l28 56 58 -39 c66 -45 83 -47 120 -18 42 33 36 80 -14 121 l-41 32 39 16
c72 28 90 60 65 112 -21 43 -67 46 -150 12 -8 -4 -9 6 -2 36 20 88 -56 145
-115 87z"/>
<path d="M801 3944 c-26 -33 -26 -50 -1 -97 l20 -37 -55 2 c-44 2 -59 -2 -75
-17 -31 -32 -33 -73 -5 -101 22 -22 41 -27 98 -27 22 0 22 -8 -3 -40 -45 -57
-27 -123 36 -131 36 -5 60 12 101 71 l30 42 54 -53 c48 -47 58 -53 87 -48 18
2 39 14 47 25 27 38 18 71 -32 127 l-47 53 29 24 c95 79 108 107 70 151 -32
37 -71 33 -130 -11 -26 -20 -51 -37 -55 -37 -3 0 -14 18 -23 39 -30 66 -54 91
-92 91 -24 0 -39 -7 -54 -26z"/>
<path d="M6093 3948 c-11 -13 -25 -37 -32 -55 -15 -38 -39 -61 -49 -47 -4 5
-25 22 -46 38 -44 33 -87 38 -115 12 -43 -39 -27 -90 45 -144 24 -18 44 -36
44 -40 -1 -4 -21 -29 -45 -56 -60 -67 -59 -122 2 -144 39 -13 63 -1 110 52
l41 46 41 -54 c47 -61 77 -74 120 -52 48 25 54 65 16 116 -14 18 -23 35 -21
38 3 2 22 6 43 9 21 3 46 9 56 15 25 13 38 53 28 81 -15 39 -38 50 -95 48
l-54 -1 19 37 c23 43 19 88 -9 109 -27 21 -76 17 -99 -8z"/>
<path d="M1049 3169 c-16 -17 -37 -44 -46 -60 l-17 -28 -52 49 c-61 57 -97 65
-132 27 -31 -33 -28 -70 9 -111 l30 -35 -28 -6 c-46 -10 -77 -29 -91 -58 -11
-22 -10 -31 2 -56 19 -35 56 -46 113 -33 l41 9 -14 -33 c-19 -46 -17 -76 6
-102 25 -27 70 -29 98 -4 10 9 29 43 42 75 l22 57 34 -20 c75 -47 92 -52 121
-38 15 7 33 24 39 36 22 44 0 77 -80 125 l-48 27 37 51 c49 69 54 101 22 133
-36 35 -72 34 -108 -5z"/>
<path d="M5842 3173 c-30 -34 -25 -65 23 -132 l36 -50 -38 -24 c-21 -13 -48
-29 -59 -35 -46 -24 -48 -94 -4 -125 28 -19 59 -14 108 17 23 14 48 26 55 26
7 0 21 -25 32 -56 10 -30 28 -62 39 -70 30 -21 72 -17 96 9 22 22 22 39 5 109
-7 27 -7 27 26 18 52 -15 74 -12 101 15 47 47 20 105 -58 124 l-45 12 31 36
c27 30 31 42 27 71 -7 40 -31 61 -70 62 -20 0 -43 -14 -81 -50 l-52 -49 -17
28 c-53 90 -111 114 -155 64z"/>
<path d="M3458 3558 c-28 -23 -36 -49 -26 -80 7 -19 40 -48 106 -94 54 -36
165 -112 247 -170 83 -57 160 -109 172 -114 30 -13 77 5 91 34 25 56 15 67
-261 256 -262 181 -292 197 -329 168z"/>
</g>
</svg>
